<svg xmlns="http://www.w3.org/2000/svg" viewBox="0 0 400 400" overflow="hidden" preserveAspectRatio="xMidYMid meet" id="eaf-65d2-0"><defs><clipPath id="eaf-65d2-1"><rect x="0" y="0" width="400" height="400"></rect></clipPath></defs><g clip-path="url('#eaf-65d2-1')" style="isolation: isolate;"><g><g transform="matrix(1.0153 0 0 0.9757 -3.2278 4.9134)"><ellipse fill="#ff7f7f" rx="1.584" ry="1.584" transform="matrix(0.4108 0 0 0.4209 290.3512 318.2531)"></ellipse><ellipse fill="#ff7f7f" rx="0" ry="3.1681" transform="matrix(0.4108 0 0 0.4209 419.8387 217.5698)"></ellipse><ellipse fill="#feff7f" rx="88.8387" ry="88.8387" transform="matrix(0.1992 0.3682 -0.3593 0.2041 341.0598 121.0824)" opacity="0"><animate keyTimes="0;0.1667;0.1833;0.8333;1" calcMode="linear" dur="6000ms" repeatCount="indefinite" attributeName="opacity" values="0;0;1;0;0"></animate></ellipse><ellipse fill="#7fffbf" rx="88.8387" ry="88.8387" transform="matrix(0.1992 0.3682 -0.3593 0.2041 282.1785 346.2632)" opacity="0.1282"><animate keyTimes="0;0.0833;0.4167;0.4333;1" calcMode="linear" dur="6000ms" repeatCount="indefinite" attributeName="opacity" values="0.1282;0;0;1;0.1282"></animate></ellipse><ellipse fill="#ff7fbf" rx="88.8387" ry="88.8387" transform="matrix(0.1992 0.3682 -0.3593 0.2041 121.3117 60.7454)" opacity="0.8974"><animate keyTimes="0;0.5833;0.9167;0.9333;1" calcMode="linear" dur="6000ms" repeatCount="indefinite" attributeName="opacity" values="0.8974;0;0;1;0.8621"></animate></ellipse><ellipse fill="#7f7fff" rx="88.8387" ry="88.8387" transform="matrix(0.1992 0.3682 -0.3593 0.2041 63.0672 287.0566)" opacity="0.5128"><animate keyTimes="0;0.3333;0.6667;0.6833;1" calcMode="linear" dur="6000ms" repeatCount="indefinite" attributeName="opacity" values="0.5128;0;0;1;0.5128"></animate></ellipse><ellipse fill="#ff7f7f" rx="88.8387" ry="88.8387" transform="matrix(0.4107 0.0073 -0.0072 0.4209 200.1528 37.2038)" opacity="0"><animate keyTimes="0;0.0167;0.6667;1" calcMode="linear" dur="6000ms" repeatCount="indefinite" attributeName="opacity" values="0;1;0;0"></animate></ellipse><ellipse fill="#bfff7f" rx="88.8387" ry="88.8387" transform="matrix(0.4107 0.0073 -0.0072 0.4209 361.0197 202.0475)" opacity="0"><animate keyTimes="0;0.25;0.2667;0.9167;1" calcMode="linear" dur="6000ms" repeatCount="indefinite" attributeName="opacity" values="0;0;1;0;0"></animate></ellipse><ellipse fill="#bf7fff" rx="88.8387" ry="88.8387" transform="matrix(0.4107 0.0073 -0.0072 0.4209 39.286 202.0475)" opacity="0.641"><animate keyTimes="0;0.4167;0.75;0.7667;1" calcMode="linear" dur="6000ms" repeatCount="indefinite" attributeName="opacity" values="0.641;0;0;1;0.5172"></animate></ellipse><ellipse fill="#7ffeff" rx="88.8387" ry="88.8387" transform="matrix(0.4107 0.0073 -0.0072 0.4209 201.4266 366.8913)" opacity="0.2608"><animate keyTimes="0;0.1695;0.5;0.5167;1" calcMode="linear" dur="6000ms" repeatCount="indefinite" attributeName="opacity" values="0.2608;0;0;1;0.2564"></animate></ellipse><ellipse fill="#ffbf7f" rx="88.8387" ry="88.8387" transform="matrix(0.3521 0.2168 -0.2116 0.3608 280.1438 59.615)" opacity="0"><animate keyTimes="0;0.0833;0.1;0.75;1" calcMode="linear" dur="6000ms" repeatCount="indefinite" attributeName="opacity" values="0;0;1;0;0"></animate></ellipse><ellipse fill="#7fff7f" rx="88.8387" ry="88.8387" transform="matrix(0.3521 0.2168 -0.2116 0.3608 339.0252 284.7957)" opacity="0"><animate keyTimes="0;0.3333;0.35;1" calcMode="linear" dur="6000ms" repeatCount="indefinite" attributeName="opacity" values="0;0;1;0"></animate></ellipse><ellipse fill="#ff7ffe" rx="88.8387" ry="88.8387" transform="matrix(0.3521 0.2168 -0.2116 0.3608 60.3956 119.952)" opacity="0.7692"><animate keyTimes="0;0.5;0.8333;0.85;1" calcMode="linear" dur="6000ms" repeatCount="indefinite" attributeName="opacity" values="0.7692;0;0;1;0.7692"></animate></ellipse><ellipse fill="#7fbfff" rx="88.8387" ry="88.8387" transform="matrix(0.3521 0.2168 -0.2116 0.3608 120.3801 345.7854)" opacity="0.3846"><animate keyTimes="0;0.25;0.5833;0.6;1" calcMode="linear" dur="6000ms" repeatCount="indefinite" attributeName="opacity" values="0.3846;0;0;1;0.3846"></animate></ellipse></g></g><g><g transform="matrix(0.2177 0 0 0.2242 377.7115 45.3786)" opacity="0.6"><path fill="#3b6147" fill-rule="evenodd" d="m487.056 1.1c-8.494 0.441 -21.769 1.527 -29.5 2.413c-7.731 0.886 -20.806 2.744 -29.056 4.129c-8.25 1.385 -21.631 4.036 -29.736 5.891c-8.105 1.855 -21.812 5.459 -30.459 8.009c-8.648 2.55 -21.366 6.677 -28.264 9.172c-6.898 2.494 -18.731 7.177 -26.297 10.407c-7.565 3.23 -20.615 9.304 -29 13.499c-8.384 4.194 -19.969 10.324 -25.744 13.623c-5.775 3.298 -18.825 11.539 -29 18.315c-10.175 6.775 -23.7 16.377 -30.055 21.337c-6.355 4.961 -15.805 12.667 -21 17.125c-5.195 4.457 -17.025 15.614 -26.289 24.792c-9.264 9.179 -21.29 21.863 -26.726 28.188c-5.435 6.325 -13.743 16.45 -18.462 22.5c-4.719 6.05 -14.147 19.325 -20.952 29.5c-6.805 10.175 -15.563 24.125 -19.464 31c-3.9 6.875 -10.413 19.25 -14.472 27.5c-4.06 8.25 -9.914 21.026 -13.008 28.391c-3.095 7.365 -8.329 21.293 -11.633 30.95c-3.303 9.657 -7.804 24.106 -10.002 32.109c-2.198 8.002 -5.523 21.975 -7.389 31.05c-1.865 9.075 -4.319 23.025 -5.452 31c-1.134 7.975 -2.624 19.675 -3.312 26c-0.763 7.016 -1.254 25.538 -1.258 47.5c-0.006 27.994 0.393 39.669 1.798 52.5c0.993 9.075 3.135 24.375 4.759 34c1.625 9.625 5.18 26.52 7.9 37.544c2.721 11.024 7.453 27.592 10.515 36.817c3.063 9.226 7.779 22.315 10.481 29.086c2.701 6.771 8.039 19.11 11.862 27.419c3.823 8.31 10.882 22.202 15.687 30.871c4.805 8.67 12.177 21.163 16.381 27.763c4.205 6.6 10.995 16.725 15.089 22.5c4.094 5.775 12.197 16.432 18.006 23.683c5.809 7.25 16.172 19.359 23.029 26.908c6.857 7.549 18.327 19.167 25.49 25.817c7.163 6.651 17.063 15.51 22 19.687c4.937 4.177 14.621 11.866 21.519 17.088c6.899 5.222 17.249 12.648 23 16.504c5.752 3.855 16.281 10.517 23.399 14.803c7.118 4.286 20.618 11.701 30 16.478c9.382 4.777 24.259 11.735 33.059 15.462c8.8 3.726 25.225 9.847 36.5 13.601c11.275 3.754 28.6 8.835 38.5 11.292c9.9 2.456 24.525 5.632 32.5 7.058c7.975 1.425 19.675 3.2521 26 4.058c6.325 0.807 17.575 2.02 25 2.6951c7.425 0.676 26.325 1.228 42 1.226c15.675 -0.001 34.8 -0.5599 42.5 -1.2419c7.7 -0.681 20.525 -2.139 28.5 -3.238c7.975 -1.1 20.35 -3.129 27.5 -4.508c7.15 -1.38 20.02 -4.266 28.6 -6.414c8.579 -2.148 22.754 -6.21 31.5 -9.027c8.745 -2.817 23.325 -8.052 32.4 -11.6331c9.075 -3.581 24.15 -10.215 33.5 -14.7419c9.35 -4.526 23.075 -11.722 30.5 -15.989c7.425 -4.268 20.475 -12.359 29 -17.981c8.525 -5.622 20.45 -13.975 26.5 -18.562c6.05 -4.588 16.625 -13.093 23.5 -18.9c6.875 -5.807 20.402 -18.448 30.06 -28.091c9.657 -9.643 22.306 -23.158 28.108 -30.033c5.801 -6.875 14.784 -18.136 19.961 -25.025c5.178 -6.889 13.285 -18.364 18.0179 -25.5c4.7321 -7.136 12.333 -19.475 16.8911 -27.4189c4.558 -7.945 12.225 -22.57 17.037 -32.5c4.812 -9.931 11.672 -25.481 15.243 -34.556c3.572 -9.075 8.545 -22.903 11.051 -30.73c2.506 -7.826 6.137 -20.201 8.07 -27.5c1.9319 -7.298 5.064 -21.145 6.96 -30.77c1.896 -9.625 4.395 -24.925 5.554 -34c1.1591 -9.075 2.595 -21.675 3.191 -28c0.5959 -6.325 1.271 -23.987 1.5 -39.25c0.2799 -18.649 0.079 -27.75 -0.614 -27.75c-0.587 0 -1.03 -2.471 -1.03 -5.751c0 -3.164 -0.9 -13.622 -1.999 -23.24c-1.099 -9.619 -3.14 -24.012 -4.534 -31.985c-1.394 -7.973 -3.841 -20.127 -5.437 -27.01c-1.596 -6.883 -4.908 -19.489 -7.361 -28.014c-2.453 -8.525 -6.952 -22.344 -9.997 -30.709c-3.046 -8.364 -8.322 -21.639 -11.725 -29.5c-3.403 -7.86 -8.814 -19.533 -12.024 -25.94c-3.211 -6.408 -9.278 -17.658 -13.482 -25c-4.204 -7.343 -11.478 -19.186 -16.164 -26.317c-4.686 -7.131 -12.177 -17.931 -16.6479 -24c-4.471 -6.069 -12.473 -16.26 -17.782 -22.648c-5.309 -6.388 -15.25 -17.638 -22.091 -25c-6.842 -7.362 -18.498 -18.889 -25.902 -25.614c-7.405 -6.725 -18.838 -16.576 -25.409 -21.89c-6.57 -5.314 -18.17 -14.091 -25.778 -19.504c-7.609 -5.414 -20.053 -13.649 -27.654 -18.3c-7.601 -4.652 -19.601 -11.574 -26.667 -15.383c-7.065 -3.809 -18.921 -9.74 -26.346 -13.181c-7.425 -3.44 -20.7 -9.079 -29.5 -12.53c-8.8 -3.452 -21.85 -8.154 -29 -10.449c-7.15 -2.296 -21.55 -6.347 -32 -9.003c-10.45 -2.656 -27.1 -6.207 -37 -7.891c-9.9 -1.684 -24.075 -3.746 -31.5 -4.582c-7.425 -0.837 -22.275 -1.975 -33 -2.53c-10.725 -0.556 -23.55 -0.947 -28.5 -0.87c-4.95 0.077 -15.95 0.501 -24.444 0.941m-6.556 3.936c-7.15 0.492 -19.3 1.605 -27 2.473c-7.7 0.869 -20.55 2.678 -28.554 4.022c-8.005 1.343 -19.705 3.595 -26 5.004c-6.296 1.409 -17.248 4.152 -24.339 6.095c-7.091 1.943 -20.141 6.022 -29 9.065c-8.859 3.043 -22.407 8.216 -30.107 11.497c-7.7 3.28 -22.1 10.124 -32 15.21c-9.9 5.085 -24.465 13.213 -32.368 18.062c-7.902 4.85 -20.8 13.418 -28.662 19.04c-7.862 5.623 -17.821 13.079 -22.132 16.569c-4.311 3.49 -12.563 10.403 -18.338 15.363c-5.775 4.959 -18.398 16.902 -28.051 26.54c-9.653 9.638 -21.613 22.249 -26.577 28.024c-4.964 5.775 -13.077 15.675 -18.029 22c-4.952 6.325 -12.167 16 -16.033 21.5c-3.866 5.5 -10.45 15.462 -14.631 22.137c-4.181 6.676 -11.447 19.276 -16.145 28c-4.699 8.725 -11.527 22.613 -15.175 30.863c-3.648 8.25 -8.997 21.338 -11.888 29.085c-2.89 7.747 -7.082 20.122 -9.315 27.5c-2.232 7.378 -5.395 18.815 -7.027 25.415c-1.633 6.6 -4.123 17.85 -5.535 25c-1.411 7.15 -3.264 17.722 -4.117 23.494c-0.854 5.771 -2.196 16.346 -2.983 23.5c-0.786 7.153 -1.932 22.149 -2.544 33.323c-0.825 15.026 -0.82 25.949 0.018 41.94c0.623 11.893 1.993 29.15 3.044 38.349c1.052 9.2 2.855 22.276 4.008 29.06c1.153 6.784 3.206 17.509 4.56 23.834c1.355 6.325 4.237 18.026 6.403 26.001c2.166 7.976 6.226 21.213 9.022 29.416c2.797 8.204 7.381 20.578 10.189 27.499c2.808 6.921 7.88 18.434 11.273 25.584c3.392 7.15 9.018 18.175 12.502 24.5c3.484 6.325 9.703 16.9 13.82 23.5c4.117 6.6 11.638 17.85 16.712 25c5.074 7.15 13.525 18.318 18.781 24.818c5.256 6.5 14.753 17.569 21.105 24.599c6.352 7.029 17.186 18.229 24.075 24.889c6.889 6.659 17.685 16.5519 23.99 21.983c6.305 5.432 16.095 13.482 21.756 17.889c5.661 4.407 15.467 11.65 21.792 16.095c6.325 4.445 18.7 12.436 27.5 17.757c8.8 5.322 24.422 13.866 34.716 18.988c10.293 5.122 26.718 12.455 36.5 16.297c9.781 3.842 23.558 8.824 30.616 11.071c7.057 2.247 20.782 6.069 30.5 8.494c9.717 2.425 24.193 5.575 32.168 7.001c7.975 1.425 19.675 3.252 26 4.058c6.325 0.8069 17.575 2.0319 25 2.722c7.451 0.693 27.838 1.2629 45.5 1.274c18.393 0.0099 37.953 -0.53 46 -1.2721c7.7 -0.71 20.525 -2.188 28.5 -3.287c7.975 -1.098 20.35 -3.12 27.5 -4.494c7.15 -1.374 20.181 -4.325 28.958 -6.557c8.777 -2.233 22.639 -6.257 30.806 -8.944c8.166 -2.687 21.685 -7.633 30.0421 -10.992c8.357 -3.358 23.519 -10.258 33.694 -15.332c10.175 -5.074 23.675 -12.3 30 -16.058c6.325 -3.758 16.792 -10.37 23.26 -14.693c6.469 -4.3231 17.944 -12.522 25.5 -18.221c7.557 -5.699 19.14 -14.979 25.74 -20.623c6.6 -5.644 21.008 -19.3069 32.018 -30.362c11.01 -11.055 24.897 -25.95 30.861 -33.1c5.963 -7.15 14.556 -17.95 19.0959 -24c4.539 -6.05 11.44 -15.725 15.334 -21.5c3.894 -5.775 10.729 -16.575 15.188 -24c4.459 -7.425 12.325 -22.05 17.48 -32.5c5.155 -10.45 12.29 -26.425 15.855 -35.5c3.566 -9.075 8.329 -22.31 10.5861 -29.412c2.257 -7.101 5.66 -18.801 7.561 -26c1.901 -7.198 4.799 -19.838 6.439 -28.088c1.64 -8.25 3.705 -19.95 4.587 -26c0.883 -6.05 2.285 -17.3 3.116 -25c0.8301 -7.7 1.764 -27.725 2.076 -44.5c0.358 -19.307 0.13 -36.739 -0.621 -47.5c-0.6531 -9.35 -2.0911 -24.2 -3.196 -33c-1.105 -8.8 -3.353 -22.975 -4.996 -31.5c-1.642 -8.525 -4.758 -22.366 -6.923 -30.757c-2.166 -8.391 -5.789 -20.991 -8.051 -28c-2.262 -7.009 -7.032 -20.168 -10.599 -29.243c-3.568 -9.075 -10.24 -24.15 -14.829 -33.5c-4.588 -9.35 -12.036 -23.294 -16.551 -30.987c-4.515 -7.693 -11.821 -19.393 -16.236 -26c-4.415 -6.607 -12.63 -18.088 -18.256 -25.513c-5.625 -7.425 -14.663 -18.668 -20.084 -24.985c-5.42 -6.317 -16.155 -17.96 -23.855 -25.873c-7.7 -7.914 -19.625 -19.426 -26.5 -25.583c-6.875 -6.157 -16.1 -14.131 -20.5 -17.721c-4.4 -3.59 -12.5 -9.899 -18 -14.019c-5.5 -4.121 -15.406 -11.103 -22.013 -15.516c-6.607 -4.414 -18.307 -11.707 -26 -16.208c-7.693 -4.501 -21.187 -11.71 -29.987 -16.021c-8.8 -4.311 -22.837 -10.59 -31.194 -13.954c-8.3571 -3.364 -22.082 -8.384 -30.5 -11.156c-8.418 -2.772 -23.406 -7.036 -33.306 -9.475c-9.9 -2.438 -24.075 -5.536 -31.5 -6.883c-7.425 -1.347 -19.125 -3.153 -26 -4.014c-6.875 -0.86 -17.225 -2.031 -23 -2.601c-5.775 -0.57 -23.775 -1.219 -40 -1.443c-16.225 -0.223 -35.35 -0.004 -42.5 0.488m3 39.054c-8.8 0.434 -21.85 1.522 -29 2.42c-7.15 0.897 -18.85 2.749 -26 4.115c-7.15 1.366 -20.2 4.271 -29 6.454c-8.8 2.184 -24.55 6.846 -35 10.361c-10.45 3.514 -25.075 8.949 -32.5 12.076c-7.425 3.127 -20.475 9.175 -29 13.438c-8.525 4.264 -20.675 10.818 -27 14.565c-6.325 3.747 -16.225 9.955 -22 13.795c-5.775 3.839 -16.35 11.36 -23.5 16.712c-7.15 5.352 -18.175 14.166 -24.5 19.586c-6.325 5.42 -17.582 15.937 -25.016 23.372c-7.435 7.434 -17.953 18.691 -23.375 25.016c-5.422 6.325 -14.925 18.25 -21.118 26.5c-6.193 8.25 -14.231 19.589 -17.861 25.199c-3.631 5.609 -10.05 16.184 -14.265 23.5c-4.215 7.315 -10.754 19.601 -14.531 27.301c-3.777 7.7 -9.961 21.875 -13.741 31.5c-3.78 9.625 -8.943 23.871 -11.474 31.659c-2.53 7.787 -6.354 21.287 -8.497 30c-2.144 8.712 -5.049 22.816 -6.457 31.341c-1.407 8.525 -3.244 21.35 -4.081 28.5c-0.838 7.15 -2.037 19.975 -2.664 28.5c-0.672 9.139 -0.874 22.681 -0.491 33c0.357 9.625 1.094 23.35 1.637 30.5c0.544 7.15 2.136 20.869 3.538 30.488c1.402 9.618 3.648 22.893 4.99 29.5c1.343 6.606 4.03 18.056 5.97 25.4431c1.941 7.387 5.568 19.537 8.061 27c2.494 7.463 6.8 19.194 9.57 26.069c2.77 6.875 8.725 20.153 13.233 29.507c4.509 9.354 11.031 21.954 14.495 28c3.464 6.046 10.129 16.843 14.811 23.993c4.682 7.15 12.903 18.85 18.268 26c5.365 7.15 14.022 17.95 19.238 24c5.215 6.05 18.221 19.55 28.902 30c10.682 10.45 24.807 23.339 31.389 28.642c6.583 5.303 15.569 12.214 19.969 15.358c5.18 3.701 8.085 5.237 8.243 4.358c0.133 -0.7469 -0.092 -43.508 -0.5 -95.026c-0.409 -51.517 -1.059 -93.983 -1.446 -94.369c-0.386 -0.386 -5.151 2.048 -10.589 5.408c-5.437 3.361 -13.235 7.657 -17.327 9.548c-4.092 1.891 -11.024 4.377 -15.404 5.524c-4.379 1.147 -13.198 2.583 -19.596 3.19c-7.386 0.701 -12.251 0.759 -13.324 0.159c-1.357 -0.76 1.196 -2.603 12.975 -9.369c8.066 -4.633 17.165 -10.448 20.22 -12.923c3.054 -2.475 6.374 -6.048 7.377 -7.94c1.003 -1.892 1.651 -3.613 1.441 -3.823c-0.211 -0.211 -3.926 0.736 -8.256 2.104c-4.33 1.368 -11.459 3.264 -15.843 4.213c-5.617 1.217 -12.844 1.749 -24.471 1.804c-9.075 0.043 -20.437 -0.285 -25.25 -0.73c-4.812 -0.444 -8.728 -1.105 -8.702 -1.468c0.026 -0.363 3.665 -3.585 8.087 -7.16c4.422 -3.575 10.304 -8.75 13.071 -11.5c2.768 -2.75 7.003 -7.757 9.412 -11.126c2.409 -3.369 5.082 -7.8051 5.94 -9.858c0.857 -2.053 1.394 -3.897 1.192 -4.099c-0.202 -0.203 -4.679 0.32 -9.948 1.161c-5.269 0.841 -12.086 1.392 -15.149 1.225l-5.568 -0.303l8.664 -7c4.766 -3.85 11.349 -9.475 14.63 -12.5c3.28 -3.025 9.213 -9.395 13.183 -14.156c3.97 -4.761 10.595 -13.761 14.722 -20c4.127 -6.239 9.349 -14.865 11.605 -19.169c3.219 -6.142 3.885 -8.229 3.096 -9.703c-0.95 -1.775 -1.234 -1.791 -5.245 -0.301c-2.387 0.887 -7.735 1.63 -12.24 1.701c-6.868 0.108 -8.798 -0.266 -13.642 -2.644c-3.102 -1.523 -7.49 -4.775 -9.75 -7.226c-2.259 -2.452 -4.108 -4.896 -4.108 -5.433c0 -0.5359 4.075 -3.079 9.055 -5.6509c6.254 -3.231 11.464 -6.944 16.848 -12.009c4.286 -4.032 10.144 -10.731 13.016 -14.887c2.873 -4.155 7.187 -11.71 9.586 -16.788c2.399 -5.079 5.515 -12.683 6.924 -16.898c1.41 -4.215 3.883 -12.99 5.497 -19.5c1.614 -6.51 3.242 -13.973 3.618 -16.586c0.376 -2.613 0.414 -4.75 0.085 -4.75c-0.329 0 -4.543 1.181 -9.364 2.625c-7.262 2.175 -10.908 2.647 -21.265 2.75c-6.875 0.069 -14.645 -0.241 -17.268 -0.689l-4.767 -0.814l10.687 -10.186c5.878 -5.602 14.728 -14.885 19.666 -20.628c4.939 -5.743 11.856 -14.833 15.373 -20.2c3.516 -5.367 7.908 -13.043 9.761 -17.058c1.852 -4.015 4.308 -10.098 5.458 -13.518c1.149 -3.421 2.09 -7.563 2.09 -9.206l0 -2.987l-4.25 1.595c-2.375 0.892 -7.344 1.606 -11.265 1.619c-5.868 0.02 -8.074 -0.493 -13.5 -3.138c-3.567 -1.738 -7.352 -3.832 -8.412 -4.653c-1.06 -0.82 -1.735 -1.642 -1.5 -1.826c0.235 -0.184 4.252 -2.998 8.927 -6.253c4.675 -3.255 11.787 -9.04 15.804 -12.854c4.017 -3.815 9.534 -9.893 12.259 -13.507c2.725 -3.615 7.146 -10.847 9.824 -16.072c2.679 -5.225 6.479 -14.225 8.446 -20c1.967 -5.775 4.75 -14.484 6.185 -19.353c1.435 -4.869 2.755 -8.694 2.934 -8.5c0.179 0.194 2.231 4.853 4.56 10.353c2.329 5.5 6.884 15.291 10.123 21.758c3.239 6.467 8.598 16.322 11.91 21.899c3.311 5.577 8.871 13.786 12.355 18.241c3.484 4.456 10.061 11.659 14.617 16.006c7.639 7.29 8.141 8.007 6.459 9.237c-1.003 0.733 -3.351 1.62 -5.219 1.97c-1.867 0.351 -5.951 0.075 -9.076 -0.612c-3.125 -0.686 -7.124 -1.464 -8.887 -1.728l-3.206 -0.479l2.5 9.354c1.374 5.145 4.547 14.529 7.05 20.854c2.503 6.325 6.809 15.775 9.567 21c2.759 5.225 7.381 13.135 10.271 17.578c2.89 4.442 7.822 11.192 10.961 15c3.138 3.807 10.482 11.494 16.319 17.081l10.613 10.16l-3.434 1.433c-1.889 0.788 -5.857 2.013 -8.816 2.722c-3.318 0.794 -8.691 1.1 -14.013 0.796c-6.29 -0.358 -11.408 -1.442 -18.869 -3.997l-10.237 -3.505l0 3.968c0 2.183 1.374 8.069 3.053 13.081c1.679 5.012 5.975 14.79 9.546 21.729c3.572 6.939 10.155 17.529 14.63 23.535c4.475 6.005 13.567 16.334 20.204 22.953c6.637 6.619 14.204 13.558 16.817 15.42c2.613 1.862 4.75 3.688 4.75 4.057c0 0.37 -2.663 1.479 -5.917 2.464c-4.888 1.48 -8.238 1.701 -19.25 1.271c-10.247 -0.399 -15.3 -1.106 -21.829 -3.054c-4.672 -1.394 -8.615 -2.414 -8.762 -2.267c-0.147 0.146 0.881 4.273 2.284 9.171c1.403 4.897 4.604 13.074 7.115 18.17c2.51 5.097 7.33 13.168 10.711 17.938c3.382 4.769 10.198 12.79 15.148 17.825c4.95 5.034 12.776 11.943 17.392 15.353c4.615 3.41 10.444 7.403 12.952 8.872c2.508 1.47 9.409 4.766 15.336 7.324c10.057 4.34 10.659 4.758 9.012 6.248c-0.971 0.879 -3.886 2.536 -6.478 3.682c-3.534 1.564 -8.256 2.323 -18.879 3.038c-7.792 0.5229 -14.328 1.114 -14.526 1.311c-0.197 0.198 0.44 1.312 1.416 2.475c0.976 1.164 8.012 5.6411 15.634 9.95c7.623 4.309 13.89 8.258 13.928 8.776c0.038 0.518 -2.374 2.175 -5.359 3.681c-2.985 1.507 -9.028 3.689 -13.428 4.849c-5.842 1.54 -11.372 2.15 -20.5 2.261c-10.124 0.122 -15.397 -0.405 -27.742 -2.774c-8.382 -1.609 -15.511 -2.655 -15.841 -2.325c-0.33 0.329 -0.302 1.537 0.062 2.683c0.363 1.146 4.342 5.281 8.841 9.189c4.499 3.908 10.542 8.447 13.43 10.087c2.887 1.64 5.502 3.389 5.809 3.886c0.317 0.514 -3.301 0.905 -8.372 0.905c-6.197 0 -11.904 -0.754 -18.646 -2.465c-5.343 -1.355 -14.459 -4.73 -20.257 -7.5c-5.797 -2.769 -10.933 -5.035 -11.413 -5.035c-0.488 0 -0.871 39.274 -0.871 89.441c0 65.314 0.304 89.629 1.128 90.138c0.62 0.384 107.345 1.085 237.166 1.559c129.821 0.475 236.301 0.6 236.622 0.279c0.321 -0.321 0.742 -41.853 0.936 -92.293c0.301 -78.669 0.148 -91.88 -1.081 -92.899c-1.141 -0.947 -2.127 -0.667 -4.851 1.374c-1.881 1.41 -6.459 4.108 -10.174 5.997c-3.715 1.888 -9.9319 4.102 -13.8149 4.919c-3.884 0.817 -10.8311 1.485 -15.437 1.485c-4.607 0 -8.595 -0.355 -8.863 -0.789c-0.268 -0.433 2.219 -3.021 5.528 -5.75c3.309 -2.728 8.034 -7.113 10.499 -9.743c2.465 -2.63 5.543 -7.13 6.84 -10c1.296 -2.87 2.666 -7.356 3.043 -9.968c0.377 -2.612 0.464 -4.75 0.193 -4.75c-0.271 0 -2.957 1.128 -5.969 2.507c-3.012 1.379 -8.11 2.994 -11.329 3.589c-3.219 0.596 -8.2339 0.785 -11.144 0.421c-2.911 -0.363 -5.277 -0.966 -5.259 -1.3391c0.018 -0.373 3.709 -3.153 8.202 -6.178c4.493 -3.025 9.68 -6.807 11.526 -8.405c1.846 -1.598 4.23 -4.618 5.298 -6.71c1.068 -2.093 1.941 -4.644 1.941 -5.67c0 -1.7791 -0.321 -1.76 -7.019 0.424c-3.86 1.258 -10.366 2.979 -14.457 3.824c-4.092 0.846 -10.964 1.537 -15.272 1.537c-4.307 0 -10.403 -0.67 -13.546 -1.488c-3.143 -0.819 -7.349 -2.172 -9.346 -3.006l-3.631 -1.517l6.885 -5.131c3.787 -2.823 9.865 -7.765 13.506 -10.983c3.641 -3.218 9.941 -9.716 14 -14.44c4.059 -4.724 10.179 -12.492 13.6 -17.262c3.421 -4.77 8.898 -13.848 12.17 -20.173c3.273 -6.325 7.353 -15.039 9.066 -19.364c1.713 -4.325 4.448 -12.616 6.079 -18.424c1.631 -5.8069 2.965 -11.879 2.965 -13.492c0 -2.408 -0.314 -2.8019 -1.75 -2.199c-0.962 0.404 -4 1.619 -6.75 2.7c-2.75 1.082 -8.302 2.599 -12.338 3.373c-4.114 0.788 -13.436 1.406 -21.219 1.406l-13.881 0l15.733 -15.75c8.653 -8.663 18.328 -19.42 21.5 -23.905c3.172 -4.486 8.269 -12.511 11.326 -17.835c3.058 -5.324 7.715 -14.704 10.35 -20.845c2.634 -6.141 6.476 -16.427 8.538 -22.859c2.061 -6.432 3.479 -12.394 3.151 -13.25c-0.344 -0.895 -1.7859 -1.556 -3.3979 -1.556c-1.54 0 -5.941 1.317 -9.781 2.927c-3.84 1.609 -10.581 3.895 -14.981 5.08c-4.4 1.184 -11.937 2.404 -16.75 2.712c-5.68 0.362 -8.75 0.198 -8.75 -0.468c0 -0.565 5.701 -7.94 12.669 -16.389c6.968 -8.449 15.961 -19.771 19.983 -25.161c4.023 -5.389 9.831 -14.016 12.908 -19.172c3.076 -5.155 6.894 -12.722 8.483 -16.815c1.59 -4.093 3.187 -9.303 3.551 -11.578c0.364 -2.275 0.267 -4.128 -0.216 -4.119c-0.483 0.01 -4.928 0.683 -9.878 1.497c-4.95 0.813 -12.236 1.48 -16.191 1.482c-3.955 0.002 -7.41 -0.351 -7.678 -0.784c-0.268 -0.433 2.695 -4.371 6.583 -8.75c3.889 -4.379 10.338 -12.323 14.331 -17.653c3.993 -5.329 9.747 -13.709 12.785 -18.622c3.039 -4.912 7.975 -13.826 10.969 -19.809c2.993 -5.983 7.15 -14.864 9.237 -19.735l3.793 -8.856l5.178 14.356c2.848 7.896 7.328 18.632 9.955 23.857c2.627 5.225 7.125 13.117 9.996 17.537c2.87 4.42 8.02 11.291 11.443 15.268c3.423 3.977 10.256 10.696 15.184 14.932c8.344 7.172 8.805 7.762 6.688 8.571c-1.25 0.478 -5.657 0.685 -9.793 0.46c-5.376 -0.294 -9.188 -1.174 -13.371 -3.089c-3.218 -1.474 -6.079 -2.679 -6.359 -2.679c-0.279 0 -0.198 2.333 0.18 5.185c0.379 2.852 2.005 8.601 3.615 12.775c1.61 4.174 5.231 11.1 8.048 15.39c2.816 4.29 8.785 11.52 13.264 16.065c4.479 4.546 14.218 12.88 21.643 18.521c7.425 5.641 13.631 10.607 13.792 11.035c0.16 0.428 -1.485 1.489 -3.657 2.358c-2.171 0.869 -6.937 2.1 -10.591 2.737c-3.842 0.669 -9.332 0.868 -13.021 0.473c-4.082 -0.437 -8.948 -1.914 -13.511 -4.1l-7.131 -3.418l0.63 4.739c0.346 2.607 1.769 9.441 3.162 15.187c1.392 5.746 4.096 14.971 6.0081 20.5c1.912 5.529 5.878 15.003 8.812 21.053c2.934 6.05 8.125 15.209 11.534 20.353c3.409 5.144 10.69 14.017 16.18 19.7159c5.4901 5.7 13.358 12.95 17.484 16.11c7.461 5.715 7.4901 5.756 5.3651 7.477c-1.176 0.952 -4.707 2.766 -7.847 4.03c-5.009 2.017 -7.365 2.2921 -19.209 2.243c-12.235 -0.051 -14.437 -0.35 -23.5 -3.184c-5.5 -1.72 -10.339 -2.793 -10.753 -2.383c-0.415 0.41 -0.076 7.921 0.753 16.691c0.828 8.771 1.986 18.422 2.573 21.447c0.588 3.025 2.197 9.281 3.576 13.901c1.379 4.621 4.225 12.119 6.324 16.663c2.1 4.5439 5.916 11.5049 8.481 15.4709c2.565 3.965 6.999 9.683 9.855 12.708c2.855 3.024 7.891 7.417 11.191 9.761c3.3 2.344 9.375 5.943 13.5 7.996c4.125 2.054 7.685 3.904 7.911 4.111c0.225 0.207 -0.428 1.303 -1.452 2.434c-1.024 1.132 -5.484 3.837 -9.911 6.012c-4.426 2.175 -11.634 4.859 -16.017 5.964c-4.382 1.105 -11.96 2.461 -16.839 3.014c-5.866 0.664 -11.527 0.672 -16.71 0.022c-4.311 -0.541 -9.046 -1.286 -10.521 -1.656c-2.457 -0.617 -2.626 -0.473 -2.007 1.713c0.371 1.312 2.285 5.728 4.253 9.813c2.919 6.06 5.851 9.76 15.926 20.093c6.792 6.966 12.053 12.961 11.691 13.322c-0.361 0.362 -4.224 0.658 -8.584 0.658c-4.359 0 -12.339 -0.899 -17.733 -1.999c-5.394 -1.099 -13.091 -3.1089 -17.106 -4.467c-4.014 -1.359 -7.422 -2.347 -7.572 -2.196c-0.151 0.151 -0.737 11.049 -1.304 24.218c-0.566 13.1689 -1.327 49.707 -1.691 81.194c-0.4 34.663 -0.298 57.25 0.259 57.25c0.506 0 7.442 -5.441 15.413 -12.091c7.972 -6.65 19.593 -16.611 25.825 -22.136c6.232 -5.525 16.59 -15.947 23.017 -23.159c6.427 -7.213 16.0099 -18.289 21.294 -24.614c5.284 -6.325 13.446 -16.768 18.138 -23.207c4.691 -6.438 12.475 -18.138 17.297 -26c4.822 -7.861 12.705 -21.9431 17.5179 -31.293c4.813 -9.35 11.429 -23.3 14.701 -31c3.2729 -7.7 7.805 -19.175 10.072 -25.5c2.268 -6.325 5.877 -17.35 8.022 -24.5c2.145 -7.15 5.271 -18.625 6.947 -25.5c1.677 -6.875 3.9431 -17.675 5.036 -24c1.093 -6.325 2.899 -19.375 4.014 -29c1.114 -9.625 2.537 -24.025 3.1609 -32c0.698 -8.931 0.884 -22.95 0.484 -36.5c-0.357 -12.1 -1.092 -26.725 -1.634 -32.5c-0.541 -5.775 -2.529 -19.797 -4.418 -31.16c-1.889 -11.363 -4.567 -25.9 -5.951 -32.303c-1.385 -6.404 -4.066 -17.132 -5.958 -23.84c-1.893 -6.709 -5.543 -18.235 -8.113 -25.615c-2.57 -7.38 -7.341 -19.683 -10.603 -27.341c-3.262 -7.658 -8.67 -19.395 -12.018 -26.082c-3.348 -6.688 -9.0099 -17.334 -12.582 -23.659c-3.571 -6.325 -10.657 -17.8 -15.744 -25.5c-5.088 -7.7 -12.969 -18.95 -17.513 -25c-4.545 -6.05 -12.478 -16.013 -17.629 -22.14c-5.151 -6.127 -14.429 -16.279 -20.617 -22.559c-6.189 -6.28 -17.102 -16.618 -24.252 -22.972c-7.15 -6.353 -18.081 -15.617 -24.291 -20.586c-6.209 -4.968 -16.784 -12.847 -23.5 -17.508c-6.715 -4.661 -17.995 -11.949 -25.066 -16.196c-7.071 -4.246 -19.291 -10.994 -27.155 -14.995c-7.865 -4.001 -21.2469 -10.223 -29.738 -13.827c-8.491 -3.604 -22.596 -9.009 -31.344 -12.011c-8.748 -3.003 -20.856 -6.853 -26.906 -8.557c-6.05 -1.705 -16.175 -4.21 -22.5 -5.568c-6.325 -1.358 -18.281 -3.614 -26.569 -5.014c-8.288 -1.399 -23.509 -3.449 -33.825 -4.556c-13.384 -1.435 -24.679 -1.968 -39.431 -1.86c-11.371 0.083 -27.875 0.506 -36.675 0.939m6.317 2.973c-8.076 0.418 -19.776 1.285 -26 1.926c-6.224 0.642 -19.031 2.471 -28.458 4.066c-9.428 1.594 -24.953 4.907 -34.5 7.362c-9.548 2.455 -19.384 5.084 -21.859 5.843c-4.091 1.254 -4.48 1.645 -4.276 4.31c0.123 1.611 20.259 126.005 44.747 276.43c24.488 150.425 44.737 274.431 45 275.569c0.43 1.867 -0.942 2.539 -14.01 6.859c-7.967 2.633 -20.443 7.779 -27.723 11.435c-7.281 3.655 -17.227 9.255 -22.102 12.444c-4.876 3.188 -9.041 5.621 -9.256 5.406c-0.215 -0.215 -7.252 -16.266 -15.637 -35.669l-15.245 -35.279l-11.999 0.125c-8.331 0.087 -14.751 -0.451 -20.999 -1.759c-4.95 -1.037 -9.112 -1.791 -9.248 -1.676c-0.137 0.114 0.916 3.074 2.339 6.576c1.423 3.502 4.396 9.991 6.606 14.418c2.21 4.428 6.474 11.764 9.476 16.303c3.001 4.539 9.099 12.1 13.55 16.802c4.451 4.702 11.915 11.418 16.587 14.924c4.671 3.506 13.263 8.84 19.092 11.853c5.829 3.012 14.107 6.711 18.395 8.219l7.797 2.743l-2.767 2.887c-1.521 1.588 -5.03 3.979 -7.797 5.312c-2.766 1.333 -7.955 3.097 -11.53 3.92c-3.575 0.822 -9.182 1.786 -12.46 2.14l-5.959 0.644l3.959 2.457c2.178 1.351 8.235 4.645 13.46 7.318c5.225 2.674 10.347 5.5 11.382 6.279c1.768 1.331 1.588 1.597 -3 4.417c-2.685 1.65 -7.968 4.234 -11.739 5.742c-3.772 1.507 -9.847 3.374 -13.5 4.148c-3.654 0.775 -11.368 1.416 -17.143 1.425c-5.873 0.01 -15.962 -0.874 -22.894 -2.005c-6.817 -1.112 -12.568 -1.848 -12.781 -1.636c-0.212 0.213 2.368 2.936 5.733 6.053c4.248 3.933 9.149 7.095 16.025 10.341c5.679 2.682 9.531 5.051 9.028 5.554c-0.483 0.483 -6.441 1.729 -13.24 2.771c-8.764 1.342 -12.718 2.378 -13.582 3.56c-0.671 0.917 -2.8 6.44 -4.733 12.273c-1.933 5.834 -4.444 14.657 -5.58 19.607c-1.136 4.95 -2.259 9.569 -2.495 10.263c-0.27 0.797 -4.781 -1.936 -12.205 -7.395c-6.477 -4.762 -12.338 -9.098 -13.026 -9.636c-0.996 -0.778 -1.25 8.448 -1.25 45.419l0 46.396l14.738 5.098l14.738 5.098l4.751 12.379c2.629 6.851 5.698 13.159 6.873 14.128c1.989 1.64 8.64 1.756 106.261 1.848c57.276 0.055 141.939 0.427 188.139 0.827c79.824 0.692 84.081 0.64 85.624 -1.053c0.893 -0.98 3.555 -7.09 5.916 -13.577c2.361 -6.487 5.042 -12.607 5.958 -13.599c0.917 -0.993 9.167 -4.306 18.334 -7.362l16.668 -5.558l0 -47.388c0 -26.063 -0.256 -47.388 -0.568 -47.388c-0.312 0 -7.248 5.003 -15.412 11.117c-8.165 6.115 -15.149 11.177 -15.521 11.25c-0.372 0.073 -2.163 -5.717 -3.979 -12.867c-1.816 -7.15 -4.925 -17.5 -6.907 -23c-1.983 -5.5 -4.443 -11.125 -5.466 -12.5c-1.339 -1.798 -3.203 -2.693 -6.641 -3.187c-2.629 -0.377 -5.28 -1.221 -5.893 -1.875c-0.823 -0.878 -0.766 -1.315 0.218 -1.673c0.733 -0.267 4.63 -2.692 8.662 -5.389c4.032 -2.697 9.516 -7.294 12.188 -10.217c2.671 -2.923 6.3539 -8.124 8.184 -11.557c1.83 -3.434 3.152 -6.418 2.938 -6.632c-0.214 -0.214 -3.222 0.493 -6.685 1.57c-3.881 1.208 -9.156 1.96 -13.752 1.96c-4.1 0 -10.36 -0.73 -13.91 -1.622c-3.551 -0.891 -6.454 -1.904 -6.451 -2.25c0.002 -0.345 4.294 -2.811 9.537 -5.478c5.243 -2.668 11.712 -6.574 14.377 -8.6801c2.665 -2.107 5.801 -5.172 6.969 -6.813l2.124 -2.982l-6.256 1.488c-3.441 0.819 -9.181 2.1219 -12.756 2.895c-3.575 0.774 -9.241 1.415 -12.59 1.425c-3.35 0.009 -9.6089 -0.883 -13.91 -1.983c-4.302 -1.1 -10.263 -3.118 -13.249 -4.485c-2.985 -1.367 -5.275 -2.904 -5.089 -3.416c0.186 -0.512 4.014 -3.556 8.506 -6.765c4.493 -3.209 11.543 -8.869 15.667 -12.579c4.124 -3.71 10.992 -10.91 15.263 -16c4.271 -5.09 10.429 -13.305 13.684 -18.255c3.255 -4.95 8.773 -14.773 12.262 -21.83c3.489 -7.056 7.696 -16.956 9.348 -22c1.653 -5.043 3.299 -11.275 3.659 -13.847l0.654 -4.677l-5.954 1.853c-3.275 1.019 -9.429 2.337 -13.675 2.927c-4.247 0.591 -13.034 1.074 -19.528 1.074l-11.8069 0l-10.4901 24.25c-5.769 13.337 -14.894 34.6 -20.277 47.25c-5.383 12.65 -10.102 23.363 -10.487 23.806c-0.385 0.444 -4.927 -1.933 -10.093 -5.281c-5.167 -3.348 -14.119 -8.489 -19.894 -11.424c-5.775 -2.934 -14.775 -6.948 -20 -8.918c-5.225 -1.97 -12.696 -4.528 -16.603 -5.685l-7.103 -2.104l1.322 -8.197c0.727 -4.508 20.894 -128.347 44.815 -275.197c23.922 -146.85 43.624 -268.537 43.782 -270.415c0.283 -3.365 0.199 -3.442 -5.713 -5.261c-3.3 -1.016 -12.075 -3.386 -19.5 -5.268c-7.425 -1.881 -19.441 -4.571 -26.703 -5.978c-7.262 -1.406 -20.537 -3.461 -29.5 -4.565c-8.963 -1.104 -24.847 -2.455 -35.297 -3.001c-10.45 -0.547 -22.375 -0.93 -26.5 -0.852c-4.125 0.079 -14.107 0.485 -22.183 0.903m-127.73 24.052c-4.078 1.093 -12.628 4.039 -19 6.547c-6.373 2.508 -18.337 7.874 -26.587 11.925c-8.25 4.051 -21.525 11.105 -29.5 15.674c-7.975 4.57 -20.481 12.118 -27.792 16.774c-7.31 4.656 -19.01 12.621 -26 17.7c-6.989 5.079 -16.983 12.817 -22.208 17.195c-5.225 4.377 -12.559 11.054 -16.297 14.837l-6.797 6.878l25.664 59.928c14.116 32.96 26.081 60.373 26.589 60.919c0.606 0.65 1.179 0.58 1.664 -0.206c0.407 -0.658 3.156 -9.542 6.11 -19.741c2.954 -10.2 5.64 -18.542 5.969 -18.538c0.329 0.003 2.116 3.941 3.972 8.75c1.856 4.808 5.596 13.693 8.312 19.743c2.717 6.05 7.68 15.95 11.029 22c3.35 6.05 9.268 15.725 13.152 21.5c3.983 5.922 11 14.45 16.097 19.56c4.97 4.983 10.571 10.185 12.448 11.56l3.412 2.5l-4.779 2.801c-2.629 1.54 -6.525 3.035 -8.658 3.321c-2.132 0.286 -6.623 -0.02 -9.979 -0.68c-3.357 -0.661 -6.264 -1.04 -6.461 -0.842c-0.197 0.197 1.392 5.582 3.531 11.966c2.139 6.384 6.078 16.51 8.751 22.502c2.674 5.993 7.709 15.675 11.189 21.516c3.48 5.842 9.352 14.373 13.049 18.959c3.698 4.585 12.275 13.683 19.061 20.216c11.469 11.043 12.206 11.976 10.465 13.25c-1.03 0.753 -4.375 2.357 -7.433 3.565c-4.66 1.839 -7.624 2.204 -18.308 2.25c-7.012 0.031 -12.749 0.19 -12.75 0.353c-0.001 0.163 6.565 15.688 14.592 34.5c8.026 18.812 15.764 36.369 17.194 39.017c1.906 3.5309 5.356 6.973 12.937 12.909l10.338 8.095l-5.95 3.353l-5.95 3.353l14.062 32.738c7.734 18.006 14.396 33.114 14.805 33.574c0.408 0.46 7.681 -3.038 16.161 -7.775c8.48 -4.736 20.793 -10.7809 27.364 -13.433c6.57 -2.652 14.983 -5.899 18.695 -7.216c5.941 -2.107 6.744 -2.695 6.697 -4.903c-0.029 -1.3799 -20.167 -125.772 -44.75 -276.427c-24.583 -150.655 -45.147 -274.039 -45.697 -274.186c-0.55 -0.147 -4.336 0.626 -8.413 1.719m296.437 -0.865c-0.227 0.688 -20.492 124.684 -45.032 275.548c-24.541 150.864 -44.479 274.968 -44.306 275.787c0.194 0.921 4.889 3.014 12.314 5.489c6.6 2.201 17.449 6.6281 24.109 9.8391c6.66 3.21 16.452 8.567 21.76 11.903l9.651 6.066l1.874 -3.691c1.031 -2.03 5.806 -12.691 10.611 -23.691c4.805 -11 12.442 -29 16.971 -40c4.53 -11 8.556 -21.013 8.947 -22.25c0.609 -1.924 0.349 -2.25 -1.797 -2.25c-1.379 0 -2.769 -0.422 -3.088 -0.938c-0.3181 -0.516 1.421 -2.314 3.866 -3.996c2.444 -1.682 5.327 -4.18 6.406 -5.552c1.079 -1.371 11.013 -23.611 22.076 -49.421c11.063 -25.809 20.114 -47.338 20.114 -47.84c0 -0.505 -2.796 -0.309 -6.25 0.438c-3.437 0.743 -11.169 1.639 -17.181 1.99l-10.931 0.638l4.576 -5.91c2.517 -3.25 11.634 -14.684 20.259 -25.409c8.626 -10.725 18.352 -23.474 21.615 -28.33c3.262 -4.857 7.683 -12.507 9.823 -17c2.14 -4.494 4.415 -10.128 5.056 -12.521c0.64 -2.393 1.01 -4.505 0.822 -4.693c-0.188 -0.188 -4.605 0.07 -9.815 0.574c-5.211 0.504 -12.399 0.914 -15.974 0.911c-4.098 -0.003 -7.202 -0.536 -8.399 -1.442c-1.807 -1.368 -1.613 -1.758 4 -8.041c3.244 -3.631 8.957 -10.283 12.696 -14.78c3.738 -4.498 9.645 -12.453 13.126 -17.678c3.481 -5.225 8.9 -14.109 12.04 -19.742c3.141 -5.633 7.846 -15.083 10.455 -21c2.6089 -5.917 5.829 -13.796 7.154 -17.508c1.326 -3.712 2.649 -6.75 2.94 -6.75c0.292 0 1.571 3.938 2.842 8.75c1.272 4.813 3.737 12.73 5.479 17.595c1.742 4.865 3.617 8.853 4.167 8.863c0.55 0.01 12.127 -25.795 25.727 -57.345c13.6 -31.55 24.589 -57.813 24.42 -58.363c-0.168 -0.55 -5.2209 -5.474 -11.227 -10.941c-6.006 -5.468 -16.77 -14.616 -23.92 -20.329c-7.15 -5.713 -20.65 -15.478 -30 -21.7c-9.35 -6.222 -21.5 -13.901 -27 -17.065c-5.5 -3.164 -17.937 -9.671 -27.637 -14.46c-9.7 -4.788 -22.975 -10.855 -29.5 -13.48c-6.525 -2.626 -16.339 -6.293 -21.809 -8.15c-5.471 -1.856 -10.323 -3.375 -10.782 -3.375c-0.459 0 -1.021 0.563 -1.248 1.25m184.703 113.151c-0.675 1.482 -12.028 27.815 -25.227 58.518c-13.2 30.702 -24 56.566 -24 57.476c0 0.91 1.538 4.709 3.417 8.441c1.88 3.732 6.199 10.944 9.599 16.027c3.4 5.083 9.916 13.156 14.479 17.94c4.563 4.783 11.706 11.172 15.873 14.197c4.167 3.025 7.589 5.828 7.604 6.23c0.015 0.401 -1.871 1.698 -4.193 2.883c-2.361 1.204 -6.876 2.352 -10.25 2.605c-4.327 0.324 -7.852 -0.125 -12.486 -1.593c-3.551 -1.124 -6.6201 -1.881 -6.819 -1.683c-0.199 0.199 0.758 3.581 2.127 7.516c1.368 3.934 4.281 10.166 6.473 13.848c2.1931 3.682 6.986 10.204 10.653 14.493c3.666 4.29 10.95 11.347 16.186 15.683c5.235 4.337 13.748 10.727 18.916 14.201c5.168 3.474 9.402 6.679 9.409 7.122c0.006 0.443 -2.503 1.957 -5.577 3.364c-3.073 1.407 -7.911 3.177 -10.75 3.933c-2.838 0.756 -8.536 1.374 -12.661 1.374c-4.125 0 -9.75 -0.601 -12.5 -1.336c-2.75 -0.735 -5.964 -1.645 -7.142 -2.021l-2.142 -0.685l2.395 10.283c1.317 5.656 3.983 15.008 5.924 20.783c1.942 5.775 6.436 16.35 9.989 23.5c3.552 7.15 9.275 16.889 12.717 21.643c3.443 4.754 8.762 11.47 11.822 14.925c3.371 3.806 6.02 5.999 6.722 5.565c0.637 -0.394 11.886 -12.735 24.999 -27.424c13.112 -14.69 30.749 -34.584 39.194 -44.209c8.4449 -9.625 19.068 -21.384 23.607 -26.131c4.54 -4.748 9.2469 -10.58 10.462 -12.96c1.858 -3.643 2.116 -5.365 1.629 -10.869c-0.3181 -3.597 -2.587 -13.74 -5.0421 -22.54c-2.455 -8.8 -6.1169 -20.95 -8.138 -27c-2.021 -6.05 -6.142 -17.3 -9.16 -25c-3.017 -7.7 -9.909 -23 -15.315 -34c-5.406 -11 -13.038 -25.362 -16.961 -31.916c-3.923 -6.555 -10.328 -16.671 -14.234 -22.481c-3.906 -5.811 -10.516 -15.073 -14.689 -20.584c-4.172 -5.51 -11.9641 -15.194 -17.315 -21.519c-5.351 -6.325 -13.923 -15.954 -19.048 -21.397l-9.319 -9.898l-1.228 2.696m-666.3 6.629c-4.419 4.659 -12.34 13.42 -17.602 19.47c-5.262 6.05 -13.961 16.85 -19.33 24c-5.369 7.15 -13.579 18.85 -18.244 26c-4.665 7.15 -11.549 18.4 -15.298 25c-3.748 6.6 -10.282 19.2 -14.52 28c-4.237 8.8 -10.183 22.3 -13.212 30c-3.029 7.7 -7.348 19.625 -9.598 26.5c-2.25 6.875 -5.625 18.137 -7.5 25.028c-1.874 6.89 -4.21 16.388 -5.191 21.107c-1.74 8.373 -1.737 8.652 0.142 11.625c1.06 1.675 21.771 25.252 46.027 52.393c24.256 27.141 49.356 55.197 55.78 62.347c6.423 7.15 12.237 13.126 12.92 13.279c0.684 0.154 4.101 -2.543 7.595 -5.994c3.493 -3.451 8.325 -9.038 10.736 -12.418c2.411 -3.379 6.609 -10.806 9.328 -16.505c2.72 -5.699 6.27 -14.424 7.89 -19.388c1.62 -4.964 4.101 -14.167 5.513 -20.451c1.413 -6.283 2.47 -11.523 2.349 -11.645c-0.121 -0.121 -3.819 0.682 -8.216 1.784c-5.344 1.34 -11.81 2.06 -19.496 2.171c-8.114 0.118 -13.782 -0.368 -19.25 -1.651c-4.354 -1.022 -7.729 -2.336 -7.701 -3c0.026 -0.65 2.537 -3.207 5.58 -5.682c3.042 -2.475 10.823 -9.928 17.291 -16.561c6.467 -6.634 14.99 -16.361 18.94 -21.615c3.949 -5.255 9.197 -13.093 11.663 -17.419c2.465 -4.326 5.774 -11.024 7.354 -14.885c1.58 -3.861 3.151 -8.215 3.493 -9.675l0.62 -2.655l-7.795 0.534c-5.568 0.382 -9.379 0.074 -13.341 -1.078c-3.05 -0.887 -9.08 -3.919 -13.399 -6.739l-7.854 -5.127l5.327 -3.14c2.929 -1.727 8.307 -5.28 11.949 -7.896c3.643 -2.616 10.148 -8.241 14.457 -12.5c4.309 -4.259 10.244 -11.354 13.19 -15.765c2.946 -4.412 6.504 -10.487 7.906 -13.5c1.403 -3.014 2.555 -6.903 2.56 -8.644c0.006 -1.938 -9.882 -26.157 -25.503 -62.463c-14.032 -32.614 -25.966 -59.751 -26.52 -60.305c-0.675 -0.675 -3.649 1.779 -9.04 7.463m-124.294 241.628c-0.312 1.563 -1.467 9.142 -2.567 16.842c-1.099 7.7 -2.447 19.625 -2.993 26.5c-0.546 6.875 -1.289 20.15 -1.651 29.5c-0.383 9.886 -0.168 24.95 0.512 36c0.643 10.45 2.039 25.826 3.103 34.169c1.063 8.344 2.424 16.249 3.025 17.567c0.611 1.342 19.776 16.403 43.528 34.2079l42.436 31.8101l4.172 -2.877c2.295 -1.582 7.802 -6.477 12.238 -10.877c4.435 -4.4 10.847 -11.416 14.249 -15.592c3.402 -4.175 9.139 -11.949 12.749 -17.274c3.611 -5.325 8.119 -12.7679 10.018 -16.539c1.899 -3.771 3.227 -7.082 2.951 -7.358c-0.276 -0.276 -2.392 -0.063 -4.702 0.474c-2.311 0.536 -7.257 0.733 -10.991 0.437c-4.031 -0.32 -8.908 -1.512 -12 -2.933c-2.866 -1.3181 -6.739 -3.689 -8.609 -5.269c-1.869 -1.581 -4.682 -4.645 -6.25 -6.81c-1.568 -2.165 -2.851 -4.472 -2.851 -5.128c0 -0.656 3.037 -2.388 6.75 -3.85c3.713 -1.461 8.098 -3.738 9.745 -5.059c2.782 -2.231 2.882 -2.532 1.411 -4.25c-0.87 -1.017 -25.447 -28.624 -54.614 -61.349c-29.167 -32.725 -54.395 -60.779 -56.062 -62.342l-3.031 -2.841l-0.566 2.841m873.363 52.999c-27.223 30.508 -49.6349 56.085 -49.806 56.836c-0.17 0.751 2.08 3.262 5 5.579c2.921 2.317 7.718 5.817 10.661 7.779l5.351 3.567l-2.341 1.896c-1.288 1.043 -4.39 2.934 -6.894 4.203c-2.504 1.269 -7.233 3.097 -10.51 4.062c-4.22 1.243 -9.08 1.72 -16.666 1.634l-10.709 -0.122l-3.415 3.705c-1.879 2.037 -5.722 6.296 -8.541 9.465c-3.331 3.743 -5.126 6.656 -5.126 8.318c0 1.407 1.141 7.06 2.536 12.562c1.394 5.501 3.631 12.914 4.97 16.471c1.339 3.558 4.349 10.148 6.688 14.645c2.34 4.497 6.774 11.341 9.855 15.209c3.08 3.869 7.592 8.634 10.026 10.589c2.434 1.956 5.853 4.549 7.598 5.763l3.173 2.208l49.327 -37.054c27.13 -20.38 49.881 -37.84 50.558 -38.8c0.677 -0.961 2.129 -8.93 3.228 -17.709c1.099 -8.78 2.457 -23.155 3.019 -31.946c0.562 -8.791 1.022 -21.398 1.022 -28.017c0 -6.619 -0.473 -19.226 -1.051 -28.017c-0.577 -8.791 -1.929 -22.958 -3.004 -31.483c-1.075 -8.525 -2.432 -17.855 -3.017 -20.733c-0.584 -2.877 -1.3719 -5.423 -1.749 -5.656c-0.378 -0.234 -22.96 24.537 -50.183 55.046m-189.996 -34.587c-4.246 1.624 -8.151 3.826 -9 5.074c-0.825 1.212 -9.715 21.355 -19.756 44.761c-10.041 23.406 -18.099 43.015 -17.906 43.576c0.192 0.56 3.722 -2.356 7.843 -6.481c4.121 -4.125 10.646 -11.775 14.501 -17c3.855 -5.225 9.857 -14.225 13.339 -20c3.483 -5.775 8.471 -15 11.085 -20.5c2.615 -5.5 5.716 -12.888 6.891 -16.417c1.175 -3.529 2.394 -8.592 2.709 -11.25c0.445 -3.758 0.264 -4.811 -0.817 -4.733c-0.764 0.055 -4.764 1.391 -8.889 2.97m-433 31.316c0 0.213 1.185 3.925 2.633 8.25c1.448 4.325 4.296 11.464 6.329 15.864c2.032 4.4 6.325 12.244 9.539 17.431c3.214 5.187 9.455 13.921 13.869 19.408c4.414 5.487 8.214 9.408 8.446 8.713c0.231 -0.694 -5.816 -15.848 -13.438 -33.675l-13.859 -32.413l-5.297 -1.982c-2.913 -1.09 -5.955 -1.982 -6.76 -1.982c-0.804 0 -1.462 0.174 -1.462 0.386m-302.56 34.114c0 15.4 0.139 21.56 0.308 13.689c0.169 -7.8701 0.169 -20.47 -0.001 -28c-0.169 -7.529 -0.308 -1.089 -0.307 14.311m831.022 58.75c0.396 5.087 0.948 9.475 1.2271 9.75c0.278 0.275 3.375 -2.65 6.882 -6.5c3.506 -3.85 6.387 -7.318 6.402 -7.708c0.015 -0.389 -3.059 -1.626 -6.831 -2.75c-3.772 -1.123 -7.205 -2.042 -7.629 -2.042c-0.424 0 -0.447 4.163 -0.051 9.25m-778.462 23.99c0 0.267 1.093 5.851 2.429 12.41c1.336 6.559 3.582 16.475 4.991 22.035c1.41 5.561 4.406 16.119 6.658 23.463c2.252 7.343 7.244 21.355 11.094 31.136c3.849 9.782 11.188 26.207 16.31 36.5c5.122 10.294 13.605 25.813 18.851 34.487c5.246 8.674 13.274 21.049 17.841 27.5c4.566 6.451 12.726 17.246 18.134 23.989c5.407 6.744 11.037 12.871 12.512 13.617c1.474 0.746 19.646 7.041 40.383 13.99c20.736 6.948 38.022 12.633 38.413 12.633c0.391 0 0.417 -24.702 0.057 -54.894c-0.36 -30.192 -0.907 -55.504 -1.215 -56.25c-0.308 -0.746 -2.449 -2.735 -4.759 -4.42c-2.309 -1.685 -5.567 -4.062 -7.238 -5.282l-3.04 -2.219l-7.841 3.624c-4.313 1.992 -12.171 4.763 -17.461 6.156c-8.043 2.118 -12.609 2.614 -27.869 3.0309c-11.037 0.301 -18.25 0.1281 -18.25 -0.439c0 -0.515 6.863 -4.916 15.25 -9.78c8.387 -4.864 18.524 -11.086 22.525 -13.827c4.001 -2.741 7.12 -5.138 6.932 -5.326c-0.188 -0.188 -3.467 0.309 -7.287 1.106c-3.82 0.796 -12.339 1.952 -18.933 2.569c-6.593 0.616 -16.487 0.833 -21.987 0.483c-5.5 -0.351 -15.168 -1.319 -21.484 -2.152c-6.316 -0.833 -11.583 -1.614 -11.705 -1.735c-0.122 -0.122 4.468 -3.717 10.2 -7.988c5.731 -4.271 13.718 -11.085 17.748 -15.141c4.03 -4.057 7.973 -8.58 8.761 -10.053c1.351 -2.525 1.267 -2.819 -1.484 -5.185c-2.55 -2.194 -3.551 -2.436 -7.976 -1.928c-2.783 0.32 -10.01 0.853 -16.06 1.185l-11 0.604l5.5 -3.498c3.025 -1.924 7.243 -4.691 9.372 -6.147c2.13 -1.457 3.48 -3.007 3 -3.444c-0.479 -0.438 -18.422 -13.977 -39.872 -30.088c-21.45 -16.111 -39.562 -29.723 -40.25 -30.249c-0.687 -0.527 -1.25 -0.74 -1.25 -0.473m879.399 33.065c-24.255 18.257 -45.798 34.572 -47.873 36.255l-3.772 3.059l7.873 3.281c4.33 1.805 8.253 3.643 8.717 4.084c0.464 0.442 -0.833 2.659 -2.882 4.926c-2.298 2.544 -6.835 5.655 -11.843 8.122c-4.466 2.199 -12.578 5.12 -18.028 6.491c-5.45 1.371 -13.1 2.763 -17 3.093c-5.787 0.49 -8.065 1.232 -12.388 4.034c-2.914 1.888 -5.551 4.092 -5.859 4.897c-0.335 0.871 1.729 4.264 5.094 8.377c3.11 3.802 7.997 8.89 10.859 11.306c2.862 2.416 7.393 6.044 10.071 8.061l4.867 3.669l-2.787 1.06c-1.532 0.582 -6.063 1.569 -10.068 2.191c-6.043 0.94 -9.033 0.843 -17.581 -0.567c-5.664 -0.935 -13.976 -2.748 -18.47 -4.028l-8.171 -2.329l-0.556 2.107c-0.306 1.158 -1.059 16.281 -1.674 33.606c-0.614 17.325 -0.962 40.576 -0.7729 51.668c0.1899 11.092 0.659 20.482 1.043 20.865c0.384 0.383 14.334 -3.873 31 -9.457c16.666 -5.584 32.151 -10.985 34.41 -12.002c3.1281 -1.408 6.623 -4.988 14.637 -14.99c5.791 -7.227 14.454 -18.776 19.251 -25.664c4.798 -6.887 12.298 -18.462 16.6671 -25.721c4.369 -7.2599 11.923 -21.074 16.787 -30.699c4.863 -9.625 11.099 -22.9 13.857 -29.5c2.758 -6.6 7.078 -17.724 9.599 -24.719c2.521 -6.995 6.577 -19.82 9.013 -28.5c2.437 -8.68 5.547 -20.956 6.913 -27.281c1.3651 -6.325 2.769 -13.187 3.1201 -15.25c0.351 -2.062 0.506 -3.725 0.343 -3.695c-0.162 0.031 -20.14 14.993 -44.396 33.25m-109.399 68.894c0 0.495 0.687 2.228 1.526 3.851c0.839 1.622 1.809 2.95 2.155 2.95c0.347 0 2.165 -1.17 4.04 -2.601c1.876 -1.431 3.213 -2.799 2.971 -3.04c-0.242 -0.242 -2.746 -0.804 -5.566 -1.25c-2.972 -0.47 -5.126 -0.432 -5.126 0.09m-589.834 20.838l-6.335 4.019l5.759 4.472c3.168 2.46 6.131 4.472 6.585 4.472c0.454 0 0.825 -3.825 0.825 -8.5c0 -4.675 -0.113 -8.496 -0.25 -8.49c-0.137 0.005 -3.1 1.817 -6.584 4.027m516.837 6.107c-1.373 1.142 -4.997 3.338 -8.052 4.881c-3.056 1.542 -8.05 3.529 -11.099 4.416c-3.05 0.886 -9.276 2.037 -13.837 2.557c-4.561 0.52 -8.485 1.138 -8.72 1.374c-0.235 0.235 2.789 10.406 6.72 22.604c5.424 16.833 7.485 22.046 8.553 21.636c0.773 -0.296 7.712 -5.293 15.419 -11.102l14.013 -10.563l0 -18.974c0 -10.435 -0.112 -18.958 -0.25 -18.94c-0.138 0.019 -1.374 0.968 -2.747 2.111m-467.003 20.791c0 8.764 0.426 17.054 0.946 18.422c0.52 1.368 5.527 5.957 11.126 10.198c5.599 4.24 10.862 7.762 11.696 7.827c1.121 0.087 3.039 -4.828 7.369 -18.882c3.22 -10.45 5.855 -19.45 5.855 -20c0 -0.55 -7.986 -3.82 -17.746 -7.268c-9.76 -3.447 -18.083 -6.26 -18.496 -6.25c-0.413 0.01 -0.75 7.189 -0.75 15.953m-116 82.25c0 0.651 8.213 9.332 18.25 19.291c10.037 9.959 23.845 22.764 30.683 28.455c6.838 5.692 15.121 12.086 18.405 14.209c3.285 2.123 6.352 3.86 6.817 3.86c0.465 0 0.845 -9.567 0.845 -21.26l0 -21.26l-36.765 -12.24c-20.22 -6.732 -37.095 -12.24 -37.5 -12.24c-0.404 0 -0.735 0.533 -0.735 1.185m663.5 9.242l-30 10.311l-0.272 19.243l-0.272 19.243l3.197 -2.024c1.758 -1.113 7.505 -5.551 12.771 -9.862c5.267 -4.311 17.516 -15.713 27.221 -25.338c9.705 -9.625 18.158 -18.513 18.785 -19.75c0.892 -1.759 0.86 -2.237 -0.145 -2.192c-0.707 0.031 -14.785 4.697 -31.285 10.369m-94.672 31.459c-8.153 2.752 -14.701 5.582 -16.222 7.012c-1.402 1.319 -3.239 4.767 -4.08 7.662c-0.842 2.895 -2.88 8.271 -4.528 11.945c-1.649 3.675 -2.998 6.864 -2.998 7.088c0 0.224 10.125 0.407 22.5 0.407l22.5 0l0 -19.5c0 -17.956 -0.139 -19.489 -1.75 -19.364c-0.962 0.074 -7.902 2.212 -15.422 4.75m-451.828 14.51l0 17.396l7.934 0.702c4.364 0.386 12.352 0.379 17.75 -0.016c5.399 -0.395 10.106 -0.886 10.461 -1.092c0.355 -0.206 -0.588 -3.64 -2.095 -7.63c-1.507 -3.991 -3.529 -9.412 -4.494 -12.048c-0.964 -2.635 -2.811 -5.484 -4.103 -6.331c-1.293 -0.847 -7.436 -3.074 -13.652 -4.948c-6.215 -1.875 -11.414 -3.413 -11.551 -3.419c-0.137 -0.005 -0.25 7.818 -0.25 17.386" transform="translate(-1331.8158 174.338)"></path><path fill="#6d8f40" fill-rule="evenodd" d="m480.5 5.036c-7.15 0.492 -19.3 1.605 -27 2.473c-7.7 0.869 -20.55 2.678 -28.554 4.022c-8.005 1.343 -19.705 3.595 -26 5.004c-6.296 1.409 -17.248 4.152 -24.339 6.095c-7.091 1.943 -20.141 6.022 -29 9.065c-8.859 3.043 -22.407 8.216 -30.107 11.497c-7.7 3.28 -22.1 10.124 -32 15.21c-9.9 5.085 -24.465 13.213 -32.368 18.062c-7.902 4.85 -20.8 13.418 -28.662 19.04c-7.862 5.623 -17.821 13.079 -22.132 16.569c-4.311 3.49 -12.563 10.403 -18.338 15.363c-5.775 4.959 -18.398 16.902 -28.051 26.54c-9.653 9.638 -21.613 22.249 -26.577 28.024c-4.964 5.775 -13.077 15.675 -18.029 22c-4.952 6.325 -12.167 16 -16.033 21.5c-3.866 5.5 -10.45 15.462 -14.631 22.137c-4.181 6.676 -11.447 19.276 -16.145 28c-4.699 8.725 -11.527 22.613 -15.175 30.863c-3.648 8.25 -8.997 21.338 -11.888 29.085c-2.89 7.747 -7.082 20.122 -9.315 27.5c-2.232 7.378 -5.395 18.815 -7.027 25.415c-1.633 6.6 -4.123 17.85 -5.535 25c-1.411 7.15 -3.264 17.722 -4.117 23.494c-0.854 5.771 -2.196 16.346 -2.983 23.5c-0.786 7.153 -1.932 22.149 -2.544 33.323c-0.825 15.026 -0.82 25.949 0.018 41.94c0.623 11.893 1.993 29.15 3.044 38.349c1.052 9.2 2.855 22.276 4.008 29.06c1.153 6.784 3.206 17.509 4.56 23.834c1.355 6.325 4.237 18.026 6.403 26.001c2.166 7.976 6.226 21.213 9.022 29.416c2.797 8.204 7.381 20.578 10.189 27.499c2.808 6.921 7.88 18.434 11.273 25.584c3.392 7.15 9.018 18.175 12.502 24.5c3.484 6.325 9.703 16.9 13.82 23.5c4.117 6.6 11.638 17.85 16.712 25c5.074 7.15 13.525 18.318 18.781 24.818c5.256 6.5 14.753 17.569 21.105 24.599c6.352 7.029 17.186 18.229 24.075 24.889c6.889 6.659 17.685 16.5519 23.99 21.983c6.305 5.432 16.095 13.482 21.756 17.889c5.661 4.407 15.467 11.65 21.792 16.095c6.325 4.445 18.7 12.436 27.5 17.757c8.8 5.322 24.422 13.866 34.716 18.988c10.293 5.122 26.718 12.455 36.5 16.297c9.781 3.842 23.558 8.824 30.616 11.071c7.057 2.247 20.782 6.069 30.5 8.494c9.717 2.425 24.193 5.575 32.168 7.001c7.975 1.425 19.675 3.252 26 4.058c6.325 0.8069 17.575 2.0319 25 2.722c7.451 0.693 27.838 1.2629 45.5 1.274c18.393 0.0099 37.953 -0.53 46 -1.2721c7.7 -0.71 20.525 -2.188 28.5 -3.287c7.975 -1.098 20.35 -3.12 27.5 -4.494c7.15 -1.374 20.181 -4.325 28.958 -6.557c8.777 -2.233 22.639 -6.257 30.806 -8.944c8.166 -2.687 21.685 -7.633 30.0421 -10.992c8.357 -3.358 23.519 -10.258 33.694 -15.332c10.175 -5.074 23.675 -12.3 30 -16.058c6.325 -3.758 16.792 -10.37 23.26 -14.693c6.469 -4.3231 17.944 -12.522 25.5 -18.221c7.557 -5.699 19.14 -14.979 25.74 -20.623c6.6 -5.644 21.008 -19.3069 32.018 -30.362c11.01 -11.055 24.897 -25.95 30.861 -33.1c5.963 -7.15 14.556 -17.95 19.0959 -24c4.539 -6.05 11.44 -15.725 15.334 -21.5c3.894 -5.775 10.729 -16.575 15.188 -24c4.459 -7.425 12.325 -22.05 17.48 -32.5c5.155 -10.45 12.29 -26.425 15.855 -35.5c3.566 -9.075 8.329 -22.31 10.5861 -29.412c2.257 -7.101 5.66 -18.801 7.561 -26c1.901 -7.198 4.799 -19.838 6.439 -28.088c1.64 -8.25 3.705 -19.95 4.587 -26c0.883 -6.05 2.285 -17.3 3.116 -25c0.8301 -7.7 1.764 -27.725 2.076 -44.5c0.358 -19.307 0.13 -36.739 -0.621 -47.5c-0.6531 -9.35 -2.0911 -24.2 -3.196 -33c-1.105 -8.8 -3.353 -22.975 -4.996 -31.5c-1.642 -8.525 -4.758 -22.366 -6.923 -30.757c-2.166 -8.391 -5.789 -20.991 -8.051 -28c-2.262 -7.009 -7.032 -20.168 -10.599 -29.243c-3.568 -9.075 -10.24 -24.15 -14.829 -33.5c-4.588 -9.35 -12.036 -23.294 -16.551 -30.987c-4.515 -7.693 -11.821 -19.393 -16.236 -26c-4.415 -6.607 -12.63 -18.088 -18.256 -25.513c-5.625 -7.425 -14.663 -18.668 -20.084 -24.985c-5.42 -6.317 -16.155 -17.96 -23.855 -25.873c-7.7 -7.914 -19.625 -19.426 -26.5 -25.583c-6.875 -6.157 -16.1 -14.131 -20.5 -17.721c-4.4 -3.59 -12.5 -9.899 -18 -14.019c-5.5 -4.121 -15.406 -11.103 -22.013 -15.516c-6.607 -4.414 -18.307 -11.707 -26 -16.208c-7.693 -4.501 -21.187 -11.71 -29.987 -16.021c-8.8 -4.311 -22.837 -10.59 -31.194 -13.954c-8.3571 -3.364 -22.082 -8.384 -30.5 -11.156c-8.418 -2.772 -23.406 -7.036 -33.306 -9.475c-9.9 -2.438 -24.075 -5.536 -31.5 -6.883c-7.425 -1.347 -19.125 -3.153 -26 -4.014c-6.875 -0.86 -17.225 -2.031 -23 -2.601c-5.775 -0.57 -23.775 -1.219 -40 -1.443c-16.225 -0.223 -35.35 -0.004 -42.5 0.488m3 39.054c-8.8 0.434 -21.85 1.522 -29 2.42c-7.15 0.897 -18.85 2.749 -26 4.115c-7.15 1.366 -20.2 4.271 -29 6.454c-8.8 2.184 -24.55 6.846 -35 10.361c-10.45 3.514 -25.075 8.949 -32.5 12.076c-7.425 3.127 -20.475 9.175 -29 13.438c-8.525 4.264 -20.675 10.818 -27 14.565c-6.325 3.747 -16.225 9.955 -22 13.795c-5.775 3.839 -16.35 11.36 -23.5 16.712c-7.15 5.352 -18.175 14.166 -24.5 19.586c-6.325 5.42 -17.582 15.937 -25.016 23.372c-7.435 7.434 -17.953 18.691 -23.375 25.016c-5.422 6.325 -14.925 18.25 -21.118 26.5c-6.193 8.25 -14.231 19.589 -17.861 25.199c-3.631 5.609 -10.05 16.184 -14.265 23.5c-4.215 7.315 -10.754 19.601 -14.531 27.301c-3.777 7.7 -9.961 21.875 -13.741 31.5c-3.78 9.625 -8.943 23.871 -11.474 31.659c-2.53 7.787 -6.354 21.287 -8.497 30c-2.144 8.712 -5.049 22.816 -6.457 31.341c-1.407 8.525 -3.244 21.35 -4.081 28.5c-0.838 7.15 -2.037 19.975 -2.664 28.5c-0.672 9.139 -0.874 22.681 -0.491 33c0.357 9.625 1.094 23.35 1.637 30.5c0.544 7.15 2.136 20.869 3.538 30.488c1.402 9.618 3.648 22.893 4.99 29.5c1.343 6.606 4.03 18.056 5.97 25.4431c1.941 7.387 5.568 19.537 8.061 27c2.494 7.463 6.8 19.194 9.57 26.069c2.77 6.875 8.725 20.153 13.233 29.507c4.509 9.354 11.031 21.954 14.495 28c3.464 6.046 10.129 16.843 14.811 23.993c4.682 7.15 12.903 18.85 18.268 26c5.365 7.15 14.022 17.95 19.238 24c5.215 6.05 18.221 19.55 28.902 30c10.682 10.45 24.807 23.339 31.389 28.642c6.583 5.303 15.569 12.214 19.969 15.358c5.18 3.701 8.085 5.237 8.243 4.358c0.133 -0.7469 -0.092 -43.508 -0.5 -95.026c-0.409 -51.517 -1.059 -93.983 -1.446 -94.369c-0.386 -0.386 -5.151 2.048 -10.589 5.408c-5.437 3.361 -13.235 7.657 -17.327 9.548c-4.092 1.891 -11.024 4.377 -15.404 5.524c-4.379 1.147 -13.198 2.583 -19.596 3.19c-7.386 0.701 -12.251 0.759 -13.324 0.159c-1.357 -0.76 1.196 -2.603 12.975 -9.369c8.066 -4.633 17.165 -10.448 20.22 -12.923c3.054 -2.475 6.374 -6.048 7.377 -7.94c1.003 -1.892 1.651 -3.613 1.441 -3.823c-0.211 -0.211 -3.926 0.736 -8.256 2.104c-4.33 1.368 -11.459 3.264 -15.843 4.213c-5.617 1.217 -12.844 1.749 -24.471 1.804c-9.075 0.043 -20.437 -0.285 -25.25 -0.73c-4.812 -0.444 -8.728 -1.105 -8.702 -1.468c0.026 -0.363 3.665 -3.585 8.087 -7.16c4.422 -3.575 10.304 -8.75 13.071 -11.5c2.768 -2.75 7.003 -7.757 9.412 -11.126c2.409 -3.369 5.082 -7.8051 5.94 -9.858c0.857 -2.053 1.394 -3.897 1.192 -4.099c-0.202 -0.203 -4.679 0.32 -9.948 1.161c-5.269 0.841 -12.086 1.392 -15.149 1.225l-5.568 -0.303l8.664 -7c4.766 -3.85 11.349 -9.475 14.63 -12.5c3.28 -3.025 9.213 -9.395 13.183 -14.156c3.97 -4.761 10.595 -13.761 14.722 -20c4.127 -6.239 9.349 -14.865 11.605 -19.169c3.219 -6.142 3.885 -8.229 3.096 -9.703c-0.95 -1.775 -1.234 -1.791 -5.245 -0.301c-2.387 0.887 -7.735 1.63 -12.24 1.701c-6.868 0.108 -8.798 -0.266 -13.642 -2.644c-3.102 -1.523 -7.49 -4.775 -9.75 -7.226c-2.259 -2.452 -4.108 -4.896 -4.108 -5.433c0 -0.5359 4.075 -3.079 9.055 -5.6509c6.254 -3.231 11.464 -6.944 16.848 -12.009c4.286 -4.032 10.144 -10.731 13.016 -14.887c2.873 -4.155 7.187 -11.71 9.586 -16.788c2.399 -5.079 5.515 -12.683 6.924 -16.898c1.41 -4.215 3.883 -12.99 5.497 -19.5c1.614 -6.51 3.242 -13.973 3.618 -16.586c0.376 -2.613 0.414 -4.75 0.085 -4.75c-0.329 0 -4.543 1.181 -9.364 2.625c-7.262 2.175 -10.908 2.647 -21.265 2.75c-6.875 0.069 -14.645 -0.241 -17.268 -0.689l-4.767 -0.814l10.687 -10.186c5.878 -5.602 14.728 -14.885 19.666 -20.628c4.939 -5.743 11.856 -14.833 15.373 -20.2c3.516 -5.367 7.908 -13.043 9.761 -17.058c1.852 -4.015 4.308 -10.098 5.458 -13.518c1.149 -3.421 2.09 -7.563 2.09 -9.206l0 -2.987l-4.25 1.595c-2.375 0.892 -7.344 1.606 -11.265 1.619c-5.868 0.02 -8.074 -0.493 -13.5 -3.138c-3.567 -1.738 -7.352 -3.832 -8.412 -4.653c-1.06 -0.82 -1.735 -1.642 -1.5 -1.826c0.235 -0.184 4.252 -2.998 8.927 -6.253c4.675 -3.255 11.787 -9.04 15.804 -12.854c4.017 -3.815 9.534 -9.893 12.259 -13.507c2.725 -3.615 7.146 -10.847 9.824 -16.072c2.679 -5.225 6.479 -14.225 8.446 -20c1.967 -5.775 4.75 -14.484 6.185 -19.353c1.435 -4.869 2.755 -8.694 2.934 -8.5c0.179 0.194 2.231 4.853 4.56 10.353c2.329 5.5 6.884 15.291 10.123 21.758c3.239 6.467 8.598 16.322 11.91 21.899c3.311 5.577 8.871 13.786 12.355 18.241c3.484 4.456 10.061 11.659 14.617 16.006c7.639 7.29 8.141 8.007 6.459 9.237c-1.003 0.733 -3.351 1.62 -5.219 1.97c-1.867 0.351 -5.951 0.075 -9.076 -0.612c-3.125 -0.686 -7.124 -1.464 -8.887 -1.728l-3.206 -0.479l2.5 9.354c1.374 5.145 4.547 14.529 7.05 20.854c2.503 6.325 6.809 15.775 9.567 21c2.759 5.225 7.381 13.135 10.271 17.578c2.89 4.442 7.822 11.192 10.961 15c3.138 3.807 10.482 11.494 16.319 17.081l10.613 10.16l-3.434 1.433c-1.889 0.788 -5.857 2.013 -8.816 2.722c-3.318 0.794 -8.691 1.1 -14.013 0.796c-6.29 -0.358 -11.408 -1.442 -18.869 -3.997l-10.237 -3.505l0 3.968c0 2.183 1.374 8.069 3.053 13.081c1.679 5.012 5.975 14.79 9.546 21.729c3.572 6.939 10.155 17.529 14.63 23.535c4.475 6.005 13.567 16.334 20.204 22.953c6.637 6.619 14.204 13.558 16.817 15.42c2.613 1.862 4.75 3.688 4.75 4.057c0 0.37 -2.663 1.479 -5.917 2.464c-4.888 1.48 -8.238 1.701 -19.25 1.271c-10.247 -0.399 -15.3 -1.106 -21.829 -3.054c-4.672 -1.394 -8.615 -2.414 -8.762 -2.267c-0.147 0.146 0.881 4.273 2.284 9.171c1.403 4.897 4.604 13.074 7.115 18.17c2.51 5.097 7.33 13.168 10.711 17.938c3.382 4.769 10.198 12.79 15.148 17.825c4.95 5.034 12.776 11.943 17.392 15.353c4.615 3.41 10.444 7.403 12.952 8.872c2.508 1.47 9.409 4.766 15.336 7.324c10.057 4.34 10.659 4.758 9.012 6.248c-0.971 0.879 -3.886 2.536 -6.478 3.682c-3.534 1.564 -8.256 2.323 -18.879 3.038c-7.792 0.5229 -14.328 1.114 -14.526 1.311c-0.197 0.198 0.44 1.312 1.416 2.475c0.976 1.164 8.012 5.6411 15.634 9.95c7.623 4.309 13.89 8.258 13.928 8.776c0.038 0.518 -2.374 2.175 -5.359 3.681c-2.985 1.507 -9.028 3.689 -13.428 4.849c-5.842 1.54 -11.372 2.15 -20.5 2.261c-10.124 0.122 -15.397 -0.405 -27.742 -2.774c-8.382 -1.609 -15.511 -2.655 -15.841 -2.325c-0.33 0.329 -0.302 1.537 0.062 2.683c0.363 1.146 4.342 5.281 8.841 9.189c4.499 3.908 10.542 8.447 13.43 10.087c2.887 1.64 5.502 3.389 5.809 3.886c0.317 0.514 -3.301 0.905 -8.372 0.905c-6.197 0 -11.904 -0.754 -18.646 -2.465c-5.343 -1.355 -14.459 -4.73 -20.257 -7.5c-5.797 -2.769 -10.933 -5.035 -11.413 -5.035c-0.488 0 -0.871 39.274 -0.871 89.441c0 65.314 0.304 89.629 1.128 90.138c0.62 0.384 107.345 1.085 237.166 1.559c129.821 0.475 236.301 0.6 236.622 0.279c0.321 -0.321 0.742 -41.853 0.936 -92.293c0.301 -78.669 0.148 -91.88 -1.081 -92.899c-1.141 -0.947 -2.127 -0.667 -4.851 1.374c-1.881 1.41 -6.459 4.108 -10.174 5.997c-3.715 1.888 -9.9319 4.102 -13.8149 4.919c-3.884 0.817 -10.8311 1.485 -15.437 1.485c-4.607 0 -8.595 -0.355 -8.863 -0.789c-0.268 -0.433 2.219 -3.021 5.528 -5.75c3.309 -2.728 8.034 -7.113 10.499 -9.743c2.465 -2.63 5.543 -7.13 6.84 -10c1.296 -2.87 2.666 -7.356 3.043 -9.968c0.377 -2.612 0.464 -4.75 0.193 -4.75c-0.271 0 -2.957 1.128 -5.969 2.507c-3.012 1.379 -8.11 2.994 -11.329 3.589c-3.219 0.596 -8.2339 0.785 -11.144 0.421c-2.911 -0.363 -5.277 -0.966 -5.259 -1.3391c0.018 -0.373 3.709 -3.153 8.202 -6.178c4.493 -3.025 9.68 -6.807 11.526 -8.405c1.846 -1.598 4.23 -4.618 5.298 -6.71c1.068 -2.093 1.941 -4.644 1.941 -5.67c0 -1.7791 -0.321 -1.76 -7.019 0.424c-3.86 1.258 -10.366 2.979 -14.457 3.824c-4.092 0.846 -10.964 1.537 -15.272 1.537c-4.307 0 -10.403 -0.67 -13.546 -1.488c-3.143 -0.819 -7.349 -2.172 -9.346 -3.006l-3.631 -1.517l6.885 -5.131c3.787 -2.823 9.865 -7.765 13.506 -10.983c3.641 -3.218 9.941 -9.716 14 -14.44c4.059 -4.724 10.179 -12.492 13.6 -17.262c3.421 -4.77 8.898 -13.848 12.17 -20.173c3.273 -6.325 7.353 -15.039 9.066 -19.364c1.713 -4.325 4.448 -12.616 6.079 -18.424c1.631 -5.8069 2.965 -11.879 2.965 -13.492c0 -2.408 -0.314 -2.8019 -1.75 -2.199c-0.962 0.404 -4 1.619 -6.75 2.7c-2.75 1.082 -8.302 2.599 -12.338 3.373c-4.114 0.788 -13.436 1.406 -21.219 1.406l-13.881 0l15.733 -15.75c8.653 -8.663 18.328 -19.42 21.5 -23.905c3.172 -4.486 8.269 -12.511 11.326 -17.835c3.058 -5.324 7.715 -14.704 10.35 -20.845c2.634 -6.141 6.476 -16.427 8.538 -22.859c2.061 -6.432 3.479 -12.394 3.151 -13.25c-0.344 -0.895 -1.7859 -1.556 -3.3979 -1.556c-1.54 0 -5.941 1.317 -9.781 2.927c-3.84 1.609 -10.581 3.895 -14.981 5.08c-4.4 1.184 -11.937 2.404 -16.75 2.712c-5.68 0.362 -8.75 0.198 -8.75 -0.468c0 -0.565 5.701 -7.94 12.669 -16.389c6.968 -8.449 15.961 -19.771 19.983 -25.161c4.023 -5.389 9.831 -14.016 12.908 -19.172c3.076 -5.155 6.894 -12.722 8.483 -16.815c1.59 -4.093 3.187 -9.303 3.551 -11.578c0.364 -2.275 0.267 -4.128 -0.216 -4.119c-0.483 0.01 -4.928 0.683 -9.878 1.497c-4.95 0.813 -12.236 1.48 -16.191 1.482c-3.955 0.002 -7.41 -0.351 -7.678 -0.784c-0.268 -0.433 2.695 -4.371 6.583 -8.75c3.889 -4.379 10.338 -12.323 14.331 -17.653c3.993 -5.329 9.747 -13.709 12.785 -18.622c3.039 -4.912 7.975 -13.826 10.969 -19.809c2.993 -5.983 7.15 -14.864 9.237 -19.735l3.793 -8.856l5.178 14.356c2.848 7.896 7.328 18.632 9.955 23.857c2.627 5.225 7.125 13.117 9.996 17.537c2.87 4.42 8.02 11.291 11.443 15.268c3.423 3.977 10.256 10.696 15.184 14.932c8.344 7.172 8.805 7.762 6.688 8.571c-1.25 0.478 -5.657 0.685 -9.793 0.46c-5.376 -0.294 -9.188 -1.174 -13.371 -3.089c-3.218 -1.474 -6.079 -2.679 -6.359 -2.679c-0.279 0 -0.198 2.333 0.18 5.185c0.379 2.852 2.005 8.601 3.615 12.775c1.61 4.174 5.231 11.1 8.048 15.39c2.816 4.29 8.785 11.52 13.264 16.065c4.479 4.546 14.218 12.88 21.643 18.521c7.425 5.641 13.631 10.607 13.792 11.035c0.16 0.428 -1.485 1.489 -3.657 2.358c-2.171 0.869 -6.937 2.1 -10.591 2.737c-3.842 0.669 -9.332 0.868 -13.021 0.473c-4.082 -0.437 -8.948 -1.914 -13.511 -4.1l-7.131 -3.418l0.63 4.739c0.346 2.607 1.769 9.441 3.162 15.187c1.392 5.746 4.096 14.971 6.0081 20.5c1.912 5.529 5.878 15.003 8.812 21.053c2.934 6.05 8.125 15.209 11.534 20.353c3.409 5.144 10.69 14.017 16.18 19.7159c5.4901 5.7 13.358 12.95 17.484 16.11c7.461 5.715 7.4901 5.756 5.3651 7.477c-1.176 0.952 -4.707 2.766 -7.847 4.03c-5.009 2.017 -7.365 2.2921 -19.209 2.243c-12.235 -0.051 -14.437 -0.35 -23.5 -3.184c-5.5 -1.72 -10.339 -2.793 -10.753 -2.383c-0.415 0.41 -0.076 7.921 0.753 16.691c0.828 8.771 1.986 18.422 2.573 21.447c0.588 3.025 2.197 9.281 3.576 13.901c1.379 4.621 4.225 12.119 6.324 16.663c2.1 4.5439 5.916 11.5049 8.481 15.4709c2.565 3.965 6.999 9.683 9.855 12.708c2.855 3.024 7.891 7.417 11.191 9.761c3.3 2.344 9.375 5.943 13.5 7.996c4.125 2.054 7.685 3.904 7.911 4.111c0.225 0.207 -0.428 1.303 -1.452 2.434c-1.024 1.132 -5.484 3.837 -9.911 6.012c-4.426 2.175 -11.634 4.859 -16.017 5.964c-4.382 1.105 -11.96 2.461 -16.839 3.014c-5.866 0.664 -11.527 0.672 -16.71 0.022c-4.311 -0.541 -9.046 -1.286 -10.521 -1.656c-2.457 -0.617 -2.626 -0.473 -2.007 1.713c0.371 1.312 2.285 5.728 4.253 9.813c2.919 6.06 5.851 9.76 15.926 20.093c6.792 6.966 12.053 12.961 11.691 13.322c-0.361 0.362 -4.224 0.658 -8.584 0.658c-4.359 0 -12.339 -0.899 -17.733 -1.999c-5.394 -1.099 -13.091 -3.1089 -17.106 -4.467c-4.014 -1.359 -7.422 -2.347 -7.572 -2.196c-0.151 0.151 -0.737 11.049 -1.304 24.218c-0.566 13.1689 -1.327 49.707 -1.691 81.194c-0.4 34.663 -0.298 57.25 0.259 57.25c0.506 0 7.442 -5.441 15.413 -12.091c7.972 -6.65 19.593 -16.611 25.825 -22.136c6.232 -5.525 16.59 -15.947 23.017 -23.159c6.427 -7.213 16.0099 -18.289 21.294 -24.614c5.284 -6.325 13.446 -16.768 18.138 -23.207c4.691 -6.438 12.475 -18.138 17.297 -26c4.822 -7.861 12.705 -21.9431 17.5179 -31.293c4.813 -9.35 11.429 -23.3 14.701 -31c3.2729 -7.7 7.805 -19.175 10.072 -25.5c2.268 -6.325 5.877 -17.35 8.022 -24.5c2.145 -7.15 5.271 -18.625 6.947 -25.5c1.677 -6.875 3.9431 -17.675 5.036 -24c1.093 -6.325 2.899 -19.375 4.014 -29c1.114 -9.625 2.537 -24.025 3.1609 -32c0.698 -8.931 0.884 -22.95 0.484 -36.5c-0.357 -12.1 -1.092 -26.725 -1.634 -32.5c-0.541 -5.775 -2.529 -19.797 -4.418 -31.16c-1.889 -11.363 -4.567 -25.9 -5.951 -32.303c-1.385 -6.404 -4.066 -17.132 -5.958 -23.84c-1.893 -6.709 -5.543 -18.235 -8.113 -25.615c-2.57 -7.38 -7.341 -19.683 -10.603 -27.341c-3.262 -7.658 -8.67 -19.395 -12.018 -26.082c-3.348 -6.688 -9.0099 -17.334 -12.582 -23.659c-3.571 -6.325 -10.657 -17.8 -15.744 -25.5c-5.088 -7.7 -12.969 -18.95 -17.513 -25c-4.545 -6.05 -12.478 -16.013 -17.629 -22.14c-5.151 -6.127 -14.429 -16.279 -20.617 -22.559c-6.189 -6.28 -17.102 -16.618 -24.252 -22.972c-7.15 -6.353 -18.081 -15.617 -24.291 -20.586c-6.209 -4.968 -16.784 -12.847 -23.5 -17.508c-6.715 -4.661 -17.995 -11.949 -25.066 -16.196c-7.071 -4.246 -19.291 -10.994 -27.155 -14.995c-7.865 -4.001 -21.2469 -10.223 -29.738 -13.827c-8.491 -3.604 -22.596 -9.009 -31.344 -12.011c-8.748 -3.003 -20.856 -6.853 -26.906 -8.557c-6.05 -1.705 -16.175 -4.21 -22.5 -5.568c-6.325 -1.358 -18.281 -3.614 -26.569 -5.014c-8.288 -1.399 -23.509 -3.449 -33.825 -4.556c-13.384 -1.435 -24.679 -1.968 -39.431 -1.86c-11.371 0.083 -27.875 0.506 -36.675 0.939m-153.75 442.633c1.788 0.222 4.712 0.222 6.5 0c1.788 -0.221 0.325 -0.403 -3.25 -0.403c-3.575 0 -5.038 0.182 -3.25 0.403m654.667 28.777c0.001 10.45 0.149 14.589 0.329 9.198c0.1801 -5.391 0.179 -13.941 -0.002 -19c-0.181 -5.059 -0.328 -0.648 -0.327 9.802m-939.012 1c0.001 8.8 0.154 12.266 0.34 7.703c0.185 -4.564 0.184 -11.764 -0.003 -16c-0.187 -4.237 -0.338 -0.503 -0.337 8.297m238.004 232c-0.001 9.35 0.149 13.31 0.334 8.799c0.185 -4.51 0.186 -12.16 0.002 -17c-0.183 -4.839 -0.335 -1.149 -0.336 8.201m-42.621 126.001c-0.158 11.825 0.05 21.5 0.462 21.5c0.412 -0.001 0.75 -9.676 0.75 -21.501c0 -11.825 -0.208 -21.5 -0.462 -21.5c-0.254 0 -0.592 9.675 -0.75 21.501m511.632 10.999c-0.001 11 0.145 15.636 0.325 10.303c0.179 -5.333 0.18 -14.333 0.001 -20c-0.178 -5.667 -0.325 -1.303 -0.326 9.697m-456.14 18.236c2.629 0.207 6.679 0.204 9 -0.005c2.321 -0.21 0.17 -0.379 -4.78 -0.376c-4.95 0.003 -6.849 0.175 -4.22 0.381" transform="translate(-1331.8158 174.338)"></path><path fill="#fbd75f" fill-rule="evenodd" d="m658.123 75.25c-0.595 3.438 -20.896 127.932 -45.114 276.655c-24.217 148.723 -43.914 270.489 -43.77 270.59c0.143 0.101 5.886 2.083 12.761 4.404c6.875 2.321 18.35 7.071 25.5 10.556c7.15 3.486 16.501 8.634 20.781 11.441c4.279 2.807 7.984 5.104 8.233 5.104c0.249 0 1.534 -2.138 2.857 -4.75c1.322 -2.612 6.104 -13.3 10.626 -23.75c4.522 -10.45 11.997 -28.155 16.612 -39.344c4.615 -11.19 8.391 -20.977 8.391 -21.75c0 -0.896 -1.09 -1.406 -3 -1.406c-1.65 0 -2.99 -0.337 -2.978 -0.75c0.013 -0.413 2.272 -2.325 5.022 -4.25c2.749 -1.925 5.943 -4.991 7.098 -6.813c1.155 -1.823 11.028 -24.077 21.941 -49.455c10.913 -25.377 19.717 -46.265 19.566 -46.417c-0.152 -0.151 -3.905 0.409 -8.34 1.246c-4.564 0.86 -11.878 1.394 -16.853 1.23l-8.79 -0.291l19.995 -25.08c10.997 -13.793 22.056 -27.968 24.575 -31.5c2.519 -3.531 6.391 -9.795 8.605 -13.92c2.214 -4.125 4.891 -9.75 5.949 -12.5c1.058 -2.75 2.201 -6.156 2.54 -7.568l0.617 -2.568l-6.722 0.809c-3.697 0.445 -10.785 0.926 -15.753 1.068c-7.333 0.21 -9.553 -0.082 -11.813 -1.554l-2.782 -1.814l6.312 -6.699c3.4709 -3.684 9.206 -10.246 12.744 -14.581c3.538 -4.336 10.205 -13.532 14.815 -20.436c4.611 -6.904 11.904 -19.776 16.207 -28.605c4.304 -8.829 8.981 -19.202 10.395 -23.052c1.415 -3.85 3.083 -8.35 3.707 -10c1.083 -2.859 1.292 -2.436 4.454 9c1.825 6.6 4.551 15.308 6.057 19.351c2.317 6.22 2.899 7.067 3.775 5.5c0.57 -1.018 11.751 -26.809 24.847 -57.314c13.095 -30.504 23.774 -56.154 23.73 -57c-0.045 -0.845 -4.882 -5.901 -10.75 -11.235c-5.869 -5.333 -14.88 -13.103 -20.026 -17.266c-5.146 -4.163 -14.596 -11.33 -21 -15.926c-6.404 -4.597 -16.659 -11.523 -22.788 -15.391c-6.13 -3.868 -17.38 -10.522 -25 -14.786c-7.621 -4.265 -18.581 -9.978 -24.356 -12.695c-5.775 -2.717 -16.35 -7.329 -23.5 -10.249c-7.15 -2.92 -17.656 -6.924 -23.347 -8.899c-5.691 -1.974 -10.482 -3.59 -10.647 -3.59c-0.165 0 -0.788 2.813 -1.383 6.25m-299.123 -2.852c-4.125 1.244 -12.45 4.234 -18.5 6.643c-6.05 2.41 -19.1 8.477 -29 13.483c-9.9 5.006 -24.3 12.856 -32 17.445c-7.7 4.589 -20.708 12.81 -28.906 18.269c-8.198 5.459 -19.399 13.327 -24.89 17.486c-5.491 4.158 -13.183 10.288 -17.094 13.622c-3.91 3.333 -9.922 8.898 -13.36 12.366c-3.437 3.468 -6.25 6.82 -6.25 7.448c0 0.629 11.302 27.513 25.116 59.742c13.814 32.229 25.507 59.018 25.984 59.531c0.476 0.514 1.108 0.692 1.403 0.398c0.295 -0.295 3.002 -9.002 6.016 -19.35c3.013 -10.347 5.668 -19.002 5.899 -19.232c0.231 -0.231 0.874 0.429 1.43 1.467c0.555 1.038 2.863 6.589 5.128 12.335c2.265 5.747 7.456 17.199 11.535 25.449c4.079 8.25 10.47 19.824 14.203 25.72c3.732 5.897 9.86 14.573 13.617 19.281c3.757 4.709 10.383 11.534 14.724 15.168c4.341 3.633 7.648 7.003 7.348 7.488c-0.299 0.484 -2.866 2.057 -5.703 3.495c-4.754 2.409 -5.847 2.57 -13.932 2.046l-8.774 -0.568l0.635 2.685c0.349 1.477 2.415 7.635 4.591 13.685c2.177 6.05 6.801 16.85 10.276 24c3.476 7.15 9.038 17.05 12.361 22c3.324 4.95 9.583 13.05 13.91 18c4.327 4.95 11.964 12.6 16.97 17c5.007 4.4 9.139 8.255 9.183 8.566c0.044 0.311 -1.607 1.493 -3.67 2.626c-2.062 1.133 -6.225 2.901 -9.25 3.929c-4.075 1.384 -8.286 1.856 -16.25 1.822c-5.913 -0.025 -10.75 0.193 -10.75 0.484c0 0.292 6.617 16.065 14.705 35.052c8.087 18.986 15.746 36.213 17.018 38.28c1.273 2.0681 6.773 7.243 12.224 11.5c5.45 4.2581 9.942 8.071 9.981 8.474c0.04 0.403 -2.146 1.8571 -4.857 3.231c-2.711 1.374 -5.191 2.921 -5.51 3.437c-0.319 0.517 5.766 15.713 13.522 33.769c7.756 18.057 14.178 32.91 14.271 33.008c0.093 0.098 6.688 -3.434 14.657 -7.849c7.969 -4.414 16.964 -9.153 19.989 -10.531c3.025 -1.377 11.8 -4.899 19.5 -7.828l14 -5.324l-0.267 -3.323c-0.147 -1.828 -20.068 -125.048 -44.269 -273.823c-24.201 -148.775 -44.227 -271.513 -44.502 -272.75c-0.343 -1.542 -1.202 -2.229 -2.731 -2.182c-1.227 0.037 -5.606 1.086 -9.731 2.33m-308.333 375.852c-1.445 10.587 -3.084 25.55 -3.643 33.25c-0.559 7.7 -1.018 23.497 -1.02 35.105c-0.002 11.607 0.457 26.907 1.019 34c0.563 7.092 1.705 18.295 2.537 24.895c0.832 6.6 1.991 13.492 2.576 15.315c0.894 2.792 7.673 8.276 42.951 34.75c23.039 17.289 42.415 31.435 43.058 31.435c0.644 0 3.546 -1.833 6.45 -4.073c2.904 -2.24 8.627 -7.577 12.719 -11.86c4.092 -4.283 10.142 -11.188 13.446 -15.346c3.304 -4.157 8.473 -11.307 11.488 -15.89c3.014 -4.582 6.892 -11.131 8.616 -14.552c1.725 -3.422 3.136 -6.363 3.136 -6.536c0 -0.172 -4.387 -0.143 -9.75 0.065c-8.175 0.318 -10.678 0.03 -15.497 -1.785c-3.489 -1.314 -7.89 -4.124 -11.205 -7.153c-3.002 -2.744 -6.43 -6.561 -7.617 -8.482c-1.188 -1.921 -1.995 -3.643 -1.795 -3.826c0.2 -0.183 3.739 -1.743 7.864 -3.466c4.125 -1.723 8.582 -3.966 9.903 -4.984l2.404 -1.852l-24.374 -27.38c-13.405 -15.059 -39.162 -43.918 -57.238 -64.13c-18.075 -20.212 -32.985 -36.75 -33.133 -36.75c-0.148 0 -1.45 8.663 -2.895 19.25m874.963 37.381l-49.698 55.703l2.996 3.083c1.648 1.696 6.375 5.333 10.504 8.083c4.13 2.75 7.522 5.4 7.538 5.89c0.017 0.489 -0.758 1.513 -1.72 2.275c-0.962 0.762 -4.337 2.731 -7.5 4.375c-3.162 1.644 -8.737 3.682 -12.389 4.528c-4.199 0.974 -10.057 1.428 -15.941 1.236l-9.303 -0.304l-7.308 7.871c-4.02 4.329 -7.843 9.0941 -8.496 10.588c-0.96 2.199 -0.832 4.335 0.672 11.218c1.022 4.676 3.05 12.061 4.507 16.412c1.457 4.351 4.422 11.461 6.59 15.801c2.168 4.339 5.94 10.69 8.382 14.112c2.442 3.422 7.547 9.098 11.344 12.614c3.797 3.515 8.044 7.002 9.439 7.748c2.272 1.217 2.887 1.113 5.949 -1.004c1.878 -1.298 24.227 -18.031 49.665 -37.184c25.437 -19.153 46.655 -35.803 47.152 -37c0.496 -1.197 1.589 -7.801 2.428 -14.676c0.8391 -6.875 2.039 -19.226 2.667 -27.447c0.6931 -9.09 0.931 -26.1349 0.606 -43.5c-0.305 -16.295 -1.223 -34.349 -2.139 -42.053c-0.883 -7.425 -2.292 -17.771 -3.131 -22.99c-0.839 -5.22 -1.883 -9.849 -2.321 -10.287c-0.437 -0.437 -23.159 24.271 -50.493 54.908m-101.017 217.683c1.344 2.819 2.048 3.388 3.298 2.664c0.874 -0.507 2.714 -1.824 4.089 -2.927l2.5 -2.007l-2.625 -0.022c-1.444 -0.012 -4.053 -0.308 -5.798 -0.657l-3.173 -0.634l1.709 3.583m-591.329 17.969c-2.869 1.769 -5.119 3.505 -5 3.858c0.119 0.353 2.565 2.49 5.437 4.75c2.871 2.26 5.458 4.109 5.75 4.109c0.291 0 0.529 -3.6 0.529 -8c0 -4.4 -0.338 -7.985 -0.75 -7.967c-0.412 0.017 -3.097 1.48 -5.966 3.25m512.716 8.871c-3.575 2.163 -10.1 5.038 -14.5 6.387c-4.4 1.349 -11.415 2.792 -15.589 3.206l-7.59 0.753l6.952 22c3.824 12.1 7.087 22.148 7.251 22.328c0.164 0.18 6.858 -4.545 14.874 -10.5c8.016 -5.955 14.822 -11.728 15.124 -12.828c0.301 -1.1 0.42 -9.488 0.263 -18.64l-0.285 -16.64l-6.5 3.934m-462 19.304c0 15.235 0.218 17.618 1.75 19.156c0.962 0.966 6.194 5.067 11.626 9.112c5.432 4.045 10.005 7.225 10.162 7.065c0.158 -0.16 3.016 -9.053 6.353 -19.763c3.336 -10.709 5.738 -19.763 5.337 -20.119c-0.4 -0.356 -3.428 -1.559 -6.728 -2.673c-3.3 -1.114 -11.062 -3.86 -17.25 -6.101l-11.25 -4.075l0 17.398m-114.96 82.609c1.34 1.888 5.813 6.972 9.94 11.297c4.126 4.325 13.148 12.965 20.049 19.2c6.9 6.235 16.6 14.629 21.555 18.652c4.955 4.023 11.278 8.77 14.05 10.549c2.773 1.779 5.339 3.235 5.704 3.235c0.364 0 0.662 -9.342 0.662 -20.761l0 -20.76l-35.75 -11.884c-19.662 -6.5359 -36.402 -12.127 -37.199 -12.423c-0.907 -0.337 -0.537 0.745 0.989 2.895m661.71 7.664l-30.75 10.513l0 18.378c0 10.108 0.337 18.374 0.75 18.368c0.413 -0.005 3.771 -2.278 7.464 -5.052c3.692 -2.774 11.117 -8.916 16.5 -13.649c5.382 -4.734 15.231 -14.073 21.886 -20.754c6.655 -6.6819 12.9041 -13.374 13.886 -14.873c0.982 -1.498 1.611 -2.886 1.399 -3.084c-0.212 -0.198 -14.222 4.371 -31.135 10.153m-93.721 31.212c-9.126 2.986 -15.475 5.654 -17.188 7.223c-1.494 1.369 -3.003 3.805 -3.353 5.412c-0.351 1.607 -2.185 6.747 -4.077 11.422c-1.893 4.675 -3.434 8.837 -3.426 9.25c0.008 0.413 9.69 0.75 21.515 0.75l21.5 0l0 -19.5c0 -10.725 -0.112 -19.453 -0.25 -19.395c-0.138 0.057 -6.762 2.234 -14.721 4.838m-453.029 14.676l0 17.381l16.75 -0.015c9.212 -0.009 17.343 -0.392 18.068 -0.852c1.057 -0.669 0.845 -2.009 -1.063 -6.734c-1.31 -3.245 -2.966 -8.005 -3.679 -10.578c-0.713 -2.574 -2.303 -5.625 -3.534 -6.781c-1.231 -1.157 -7.706 -3.835 -14.39 -5.952l-12.152 -3.849l0 17.38" transform="translate(-1331.8158 174.338)"></path><path fill="#c31414" fill-rule="evenodd" d="m489.817 47.063c-8.076 0.418 -19.776 1.285 -26 1.926c-6.224 0.642 -19.031 2.471 -28.458 4.066c-9.428 1.594 -24.953 4.907 -34.5 7.362c-9.548 2.455 -19.384 5.084 -21.859 5.843c-4.091 1.254 -4.48 1.645 -4.276 4.31c0.123 1.611 20.259 126.005 44.747 276.43c24.488 150.425 44.737 274.431 45 275.569c0.43 1.867 -0.942 2.539 -14.01 6.859c-7.967 2.633 -20.443 7.779 -27.723 11.435c-7.281 3.655 -17.227 9.255 -22.102 12.444c-4.876 3.188 -9.041 5.621 -9.256 5.406c-0.215 -0.215 -7.252 -16.266 -15.637 -35.669l-15.245 -35.279l-11.999 0.125c-8.331 0.087 -14.751 -0.451 -20.999 -1.759c-4.95 -1.037 -9.112 -1.791 -9.248 -1.676c-0.137 0.114 0.916 3.074 2.339 6.576c1.423 3.502 4.396 9.991 6.606 14.418c2.21 4.428 6.474 11.764 9.476 16.303c3.001 4.539 9.099 12.1 13.55 16.802c4.451 4.702 11.915 11.418 16.587 14.924c4.671 3.506 13.263 8.84 19.092 11.853c5.829 3.012 14.107 6.711 18.395 8.219l7.797 2.743l-2.767 2.887c-1.521 1.588 -5.03 3.979 -7.797 5.312c-2.766 1.333 -7.955 3.097 -11.53 3.92c-3.575 0.822 -9.182 1.786 -12.46 2.14l-5.959 0.644l3.959 2.457c2.178 1.351 8.235 4.645 13.46 7.318c5.225 2.674 10.347 5.5 11.382 6.279c1.768 1.331 1.588 1.597 -3 4.417c-2.685 1.65 -7.968 4.234 -11.739 5.742c-3.772 1.507 -9.847 3.374 -13.5 4.148c-3.654 0.775 -11.368 1.416 -17.143 1.425c-5.873 0.01 -15.962 -0.874 -22.894 -2.005c-6.817 -1.112 -12.568 -1.848 -12.781 -1.636c-0.212 0.213 2.368 2.936 5.733 6.053c4.248 3.933 9.149 7.095 16.025 10.341c5.679 2.682 9.531 5.051 9.028 5.554c-0.483 0.483 -6.441 1.729 -13.24 2.771c-8.764 1.342 -12.718 2.378 -13.582 3.56c-0.671 0.917 -2.8 6.44 -4.733 12.273c-1.933 5.834 -4.444 14.657 -5.58 19.607c-1.136 4.95 -2.259 9.569 -2.495 10.263c-0.27 0.797 -4.781 -1.936 -12.205 -7.395c-6.477 -4.762 -12.338 -9.098 -13.026 -9.636c-0.996 -0.778 -1.25 8.448 -1.25 45.419l0 46.396l14.738 5.098l14.738 5.098l4.751 12.379c2.629 6.851 5.698 13.159 6.873 14.128c1.989 1.64 8.64 1.756 106.261 1.848c57.276 0.055 141.939 0.427 188.139 0.827c79.824 0.692 84.081 0.64 85.624 -1.053c0.893 -0.98 3.555 -7.09 5.916 -13.577c2.361 -6.487 5.042 -12.607 5.958 -13.599c0.917 -0.993 9.167 -4.306 18.334 -7.362l16.668 -5.558l0 -47.388c0 -26.063 -0.256 -47.388 -0.568 -47.388c-0.312 0 -7.248 5.003 -15.412 11.117c-8.165 6.115 -15.149 11.177 -15.521 11.25c-0.372 0.073 -2.163 -5.717 -3.979 -12.867c-1.816 -7.15 -4.925 -17.5 -6.907 -23c-1.983 -5.5 -4.443 -11.125 -5.466 -12.5c-1.339 -1.798 -3.203 -2.693 -6.641 -3.187c-2.629 -0.377 -5.28 -1.221 -5.893 -1.875c-0.823 -0.878 -0.766 -1.315 0.218 -1.673c0.733 -0.267 4.63 -2.692 8.662 -5.389c4.032 -2.697 9.516 -7.294 12.188 -10.217c2.671 -2.923 6.3539 -8.124 8.184 -11.557c1.83 -3.434 3.152 -6.418 2.938 -6.632c-0.214 -0.214 -3.222 0.493 -6.685 1.57c-3.881 1.208 -9.156 1.96 -13.752 1.96c-4.1 0 -10.36 -0.73 -13.91 -1.622c-3.551 -0.891 -6.454 -1.904 -6.451 -2.25c0.002 -0.345 4.294 -2.811 9.537 -5.478c5.243 -2.668 11.712 -6.574 14.377 -8.6801c2.665 -2.107 5.801 -5.172 6.969 -6.813l2.124 -2.982l-6.256 1.488c-3.441 0.819 -9.181 2.1219 -12.756 2.895c-3.575 0.774 -9.241 1.415 -12.59 1.425c-3.35 0.009 -9.6089 -0.883 -13.91 -1.983c-4.302 -1.1 -10.263 -3.118 -13.249 -4.485c-2.985 -1.367 -5.275 -2.904 -5.089 -3.416c0.186 -0.512 4.014 -3.556 8.506 -6.765c4.493 -3.209 11.543 -8.869 15.667 -12.579c4.124 -3.71 10.992 -10.91 15.263 -16c4.271 -5.09 10.429 -13.305 13.684 -18.255c3.255 -4.95 8.773 -14.773 12.262 -21.83c3.489 -7.056 7.696 -16.956 9.348 -22c1.653 -5.043 3.299 -11.275 3.659 -13.847l0.654 -4.677l-5.954 1.853c-3.275 1.019 -9.429 2.337 -13.675 2.927c-4.247 0.591 -13.034 1.074 -19.528 1.074l-11.8069 0l-10.4901 24.25c-5.769 13.337 -14.894 34.6 -20.277 47.25c-5.383 12.65 -10.102 23.363 -10.487 23.806c-0.385 0.444 -4.927 -1.933 -10.093 -5.281c-5.167 -3.348 -14.119 -8.489 -19.894 -11.424c-5.775 -2.934 -14.775 -6.948 -20 -8.918c-5.225 -1.97 -12.696 -4.528 -16.603 -5.685l-7.103 -2.104l1.322 -8.197c0.727 -4.508 20.894 -128.347 44.815 -275.197c23.922 -146.85 43.624 -268.537 43.782 -270.415c0.283 -3.365 0.199 -3.442 -5.713 -5.261c-3.3 -1.016 -12.075 -3.386 -19.5 -5.268c-7.425 -1.881 -19.441 -4.571 -26.703 -5.978c-7.262 -1.406 -20.537 -3.461 -29.5 -4.565c-8.963 -1.104 -24.847 -2.455 -35.297 -3.001c-10.45 -0.547 -22.375 -0.93 -26.5 -0.852c-4.125 0.079 -14.107 0.485 -22.183 0.903m353.41 136.338c-0.675 1.482 -12.028 27.815 -25.227 58.518c-13.2 30.702 -24 56.566 -24 57.476c0 0.91 1.538 4.709 3.417 8.441c1.88 3.732 6.199 10.944 9.599 16.027c3.4 5.083 9.916 13.156 14.479 17.94c4.563 4.783 11.706 11.172 15.873 14.197c4.167 3.025 7.589 5.828 7.604 6.23c0.015 0.401 -1.871 1.698 -4.193 2.883c-2.361 1.204 -6.876 2.352 -10.25 2.605c-4.327 0.324 -7.852 -0.125 -12.486 -1.593c-3.551 -1.124 -6.6201 -1.881 -6.819 -1.683c-0.199 0.199 0.758 3.581 2.127 7.516c1.368 3.934 4.281 10.166 6.473 13.848c2.1931 3.682 6.986 10.204 10.653 14.493c3.666 4.29 10.95 11.347 16.186 15.683c5.235 4.337 13.748 10.727 18.916 14.201c5.168 3.474 9.402 6.679 9.409 7.122c0.006 0.443 -2.503 1.957 -5.577 3.364c-3.073 1.407 -7.911 3.177 -10.75 3.933c-2.838 0.756 -8.536 1.374 -12.661 1.374c-4.125 0 -9.75 -0.601 -12.5 -1.336c-2.75 -0.735 -5.964 -1.645 -7.142 -2.021l-2.142 -0.685l2.395 10.283c1.317 5.656 3.983 15.008 5.924 20.783c1.942 5.775 6.436 16.35 9.989 23.5c3.552 7.15 9.275 16.889 12.717 21.643c3.443 4.754 8.762 11.47 11.822 14.925c3.371 3.806 6.02 5.999 6.722 5.565c0.637 -0.394 11.886 -12.735 24.999 -27.424c13.112 -14.69 30.749 -34.584 39.194 -44.209c8.4449 -9.625 19.068 -21.384 23.607 -26.131c4.54 -4.748 9.2469 -10.58 10.462 -12.96c1.858 -3.643 2.116 -5.365 1.629 -10.869c-0.3181 -3.597 -2.587 -13.74 -5.0421 -22.54c-2.455 -8.8 -6.1169 -20.95 -8.138 -27c-2.021 -6.05 -6.142 -17.3 -9.16 -25c-3.017 -7.7 -9.909 -23 -15.315 -34c-5.406 -11 -13.038 -25.362 -16.961 -31.916c-3.923 -6.555 -10.328 -16.671 -14.234 -22.481c-3.906 -5.811 -10.516 -15.073 -14.689 -20.584c-4.172 -5.51 -11.9641 -15.194 -17.315 -21.519c-5.351 -6.325 -13.923 -15.954 -19.048 -21.397l-9.319 -9.898l-1.228 2.696m-666.3 6.629c-4.419 4.659 -12.34 13.42 -17.602 19.47c-5.262 6.05 -13.961 16.85 -19.33 24c-5.369 7.15 -13.579 18.85 -18.244 26c-4.665 7.15 -11.549 18.4 -15.298 25c-3.748 6.6 -10.282 19.2 -14.52 28c-4.237 8.8 -10.183 22.3 -13.212 30c-3.029 7.7 -7.348 19.625 -9.598 26.5c-2.25 6.875 -5.625 18.137 -7.5 25.028c-1.874 6.89 -4.21 16.388 -5.191 21.107c-1.74 8.373 -1.737 8.652 0.142 11.625c1.06 1.675 21.771 25.252 46.027 52.393c24.256 27.141 49.356 55.197 55.78 62.347c6.423 7.15 12.237 13.126 12.92 13.279c0.684 0.154 4.101 -2.543 7.595 -5.994c3.493 -3.451 8.325 -9.038 10.736 -12.418c2.411 -3.379 6.609 -10.806 9.328 -16.505c2.72 -5.699 6.27 -14.424 7.89 -19.388c1.62 -4.964 4.101 -14.167 5.513 -20.451c1.413 -6.283 2.47 -11.523 2.349 -11.645c-0.121 -0.121 -3.819 0.682 -8.216 1.784c-5.344 1.34 -11.81 2.06 -19.496 2.171c-8.114 0.118 -13.782 -0.368 -19.25 -1.651c-4.354 -1.022 -7.729 -2.336 -7.701 -3c0.026 -0.65 2.537 -3.207 5.58 -5.682c3.042 -2.475 10.823 -9.928 17.291 -16.561c6.467 -6.634 14.99 -16.361 18.94 -21.615c3.949 -5.255 9.197 -13.093 11.663 -17.419c2.465 -4.326 5.774 -11.024 7.354 -14.885c1.58 -3.861 3.151 -8.215 3.493 -9.675l0.62 -2.655l-7.795 0.534c-5.568 0.382 -9.379 0.074 -13.341 -1.078c-3.05 -0.887 -9.08 -3.919 -13.399 -6.739l-7.854 -5.127l5.327 -3.14c2.929 -1.727 8.307 -5.28 11.949 -7.896c3.643 -2.616 10.148 -8.241 14.457 -12.5c4.309 -4.259 10.244 -11.354 13.19 -15.765c2.946 -4.412 6.504 -10.487 7.906 -13.5c1.403 -3.014 2.555 -6.903 2.56 -8.644c0.006 -1.938 -9.882 -26.157 -25.503 -62.463c-14.032 -32.614 -25.966 -59.751 -26.52 -60.305c-0.675 -0.675 -3.649 1.779 -9.04 7.463m559.073 260.04c-4.246 1.624 -8.151 3.826 -9 5.074c-0.825 1.212 -9.715 21.355 -19.756 44.761c-10.041 23.406 -18.099 43.015 -17.906 43.576c0.192 0.56 3.722 -2.356 7.843 -6.481c4.121 -4.125 10.646 -11.775 14.501 -17c3.855 -5.225 9.857 -14.225 13.339 -20c3.483 -5.775 8.471 -15 11.085 -20.5c2.615 -5.5 5.716 -12.888 6.891 -16.417c1.175 -3.529 2.394 -8.592 2.709 -11.25c0.445 -3.758 0.264 -4.811 -0.817 -4.733c-0.764 0.055 -4.764 1.391 -8.889 2.97m-433 31.316c0 0.213 1.185 3.925 2.633 8.25c1.448 4.325 4.296 11.464 6.329 15.864c2.032 4.4 6.325 12.244 9.539 17.431c3.214 5.187 9.455 13.921 13.869 19.408c4.414 5.487 8.214 9.408 8.446 8.713c0.231 -0.694 -5.816 -15.848 -13.438 -33.675l-13.859 -32.413l-5.297 -1.982c-2.913 -1.09 -5.955 -1.982 -6.76 -1.982c-0.804 0 -1.462 0.174 -1.462 0.386m528.462 92.864c0.396 5.087 0.948 9.475 1.2271 9.75c0.278 0.275 3.375 -2.65 6.882 -6.5c3.506 -3.85 6.387 -7.318 6.402 -7.708c0.015 -0.389 -3.059 -1.626 -6.831 -2.75c-3.772 -1.123 -7.205 -2.042 -7.629 -2.042c-0.424 0 -0.447 4.163 -0.051 9.25m-778.462 23.99c0 0.267 1.093 5.851 2.429 12.41c1.336 6.559 3.582 16.475 4.991 22.035c1.41 5.561 4.406 16.119 6.658 23.463c2.252 7.343 7.244 21.355 11.094 31.136c3.849 9.782 11.188 26.207 16.31 36.5c5.122 10.294 13.605 25.813 18.851 34.487c5.246 8.674 13.274 21.049 17.841 27.5c4.566 6.451 12.726 17.246 18.134 23.989c5.407 6.744 11.037 12.871 12.512 13.617c1.474 0.746 19.646 7.041 40.383 13.99c20.736 6.948 38.022 12.633 38.413 12.633c0.391 0 0.417 -24.702 0.057 -54.894c-0.36 -30.192 -0.907 -55.504 -1.215 -56.25c-0.308 -0.746 -2.449 -2.735 -4.759 -4.42c-2.309 -1.685 -5.567 -4.062 -7.238 -5.282l-3.04 -2.219l-7.841 3.624c-4.313 1.992 -12.171 4.763 -17.461 6.156c-8.043 2.118 -12.609 2.614 -27.869 3.0309c-11.037 0.301 -18.25 0.1281 -18.25 -0.439c0 -0.515 6.863 -4.916 15.25 -9.78c8.387 -4.864 18.524 -11.086 22.525 -13.827c4.001 -2.741 7.12 -5.138 6.932 -5.326c-0.188 -0.188 -3.467 0.309 -7.287 1.106c-3.82 0.796 -12.339 1.952 -18.933 2.569c-6.593 0.616 -16.487 0.833 -21.987 0.483c-5.5 -0.351 -15.168 -1.319 -21.484 -2.152c-6.316 -0.833 -11.583 -1.614 -11.705 -1.735c-0.122 -0.122 4.468 -3.717 10.2 -7.988c5.731 -4.271 13.718 -11.085 17.748 -15.141c4.03 -4.057 7.973 -8.58 8.761 -10.053c1.351 -2.525 1.267 -2.819 -1.484 -5.185c-2.55 -2.194 -3.551 -2.436 -7.976 -1.928c-2.783 0.32 -10.01 0.853 -16.06 1.185l-11 0.604l5.5 -3.498c3.025 -1.924 7.243 -4.691 9.372 -6.147c2.13 -1.457 3.48 -3.007 3 -3.444c-0.479 -0.438 -18.422 -13.977 -39.872 -30.088c-21.45 -16.111 -39.562 -29.723 -40.25 -30.249c-0.687 -0.527 -1.25 -0.74 -1.25 -0.473m879.399 33.065c-24.255 18.257 -45.798 34.572 -47.873 36.255l-3.772 3.059l7.873 3.281c4.33 1.805 8.253 3.643 8.717 4.084c0.464 0.442 -0.833 2.659 -2.882 4.926c-2.298 2.544 -6.835 5.655 -11.843 8.122c-4.466 2.199 -12.578 5.12 -18.028 6.491c-5.45 1.371 -13.1 2.763 -17 3.093c-5.787 0.49 -8.065 1.232 -12.388 4.034c-2.914 1.888 -5.551 4.092 -5.859 4.897c-0.335 0.871 1.729 4.264 5.094 8.377c3.11 3.802 7.997 8.89 10.859 11.306c2.862 2.416 7.393 6.044 10.071 8.061l4.867 3.669l-2.787 1.06c-1.532 0.582 -6.063 1.569 -10.068 2.191c-6.043 0.94 -9.033 0.843 -17.581 -0.567c-5.664 -0.935 -13.976 -2.748 -18.47 -4.028l-8.171 -2.329l-0.556 2.107c-0.306 1.158 -1.059 16.281 -1.674 33.606c-0.614 17.325 -0.962 40.576 -0.7729 51.668c0.1899 11.092 0.659 20.482 1.043 20.865c0.384 0.383 14.334 -3.873 31 -9.457c16.666 -5.584 32.151 -10.985 34.41 -12.002c3.1281 -1.408 6.623 -4.988 14.637 -14.99c5.791 -7.227 14.454 -18.776 19.251 -25.664c4.798 -6.887 12.298 -18.462 16.6671 -25.721c4.369 -7.2599 11.923 -21.074 16.787 -30.699c4.863 -9.625 11.099 -22.9 13.857 -29.5c2.758 -6.6 7.078 -17.724 9.599 -24.719c2.521 -6.995 6.577 -19.82 9.013 -28.5c2.437 -8.68 5.547 -20.956 6.913 -27.281c1.3651 -6.325 2.769 -13.187 3.1201 -15.25c0.351 -2.062 0.506 -3.725 0.343 -3.695c-0.162 0.031 -20.14 14.993 -44.396 33.25" transform="translate(-1331.8158 174.338)"></path></g></g></g></svg>